<?xml version="1.0" encoding="UTF-8" standalone="no"?>
<!-- Created with Inkscape (http://www.inkscape.org/) -->
<svg
   xmlns:a="http://ns.adobe.com/AdobeSVGViewerExtensions/3.0/"
   xmlns:svg="http://www.w3.org/2000/svg"
   xmlns="http://www.w3.org/2000/svg"
   version="1.0"
   width="48pt"
   height="48pt"
   viewBox="0 0 48 48"
   id="svg548"
   xml:space="preserve">
  <defs
   id="defs630" />
  
  
  <g
   id="Layer_3">
    <path
   d="M 44.5,17.527 L 44.244,17.527 L 10.604,17.527 L 43.339,8.756 C 43.527,8.705 43.685,8.585 43.782,8.415 C 43.879,8.246 43.905,8.05 43.854,7.861 L 42.774,3.829 C 42.726,3.644 42.6,3.481 42.433,3.385 C 42.264,3.288 42.067,3.262 41.879,3.313 L 41.633,3.38 C 41.633,3.38 41.674,3.401 41.684,3.407 C 41.414,3.441 40.941,3.566 40.02,3.813 L 4.088,13.439 C 3.9,13.489 3.743,13.61 3.645,13.778 C 3.58,13.892 3.546,14.016 3.546,14.143 C 3.546,14.207 3.554,14.271 3.571,14.333 L 4.644,18.335 L 4.644,22.43 C 4.644,22.832 4.971,23.159 5.373,23.159 L 6.897,23.159 L 6.897,44.616 C 6.897,44.982 7.17,45.294 7.533,45.341 L 7.753,45.368 C 7.991,45.397 8.616,45.464 9.346,45.464 L 42.104,45.464 C 43.454,45.464 44.551,44.35 44.551,42.98 L 44.551,23.155 C 44.929,23.128 45.231,22.815 45.231,22.431 L 45.231,18.257 C 45.231,17.855 44.903,17.527 44.5,17.527 z "
   style="opacity:0.2"
   id="path551" />
    <path
   d="M 44.112,17.139 L 43.855,17.139 L 10.215,17.139 L 42.95,8.367 C 43.138,8.317 43.296,8.196 43.393,8.026 C 43.49,7.858 43.516,7.661 43.466,7.472 L 42.386,3.44 C 42.337,3.255 42.213,3.093 42.045,2.996 C 41.876,2.899 41.68,2.873 41.491,2.924 L 41.243,2.99 C 41.243,2.99 41.285,3.011 41.295,3.016 C 41.024,3.051 40.552,3.175 39.631,3.422 L 3.699,13.051 C 3.511,13.101 3.354,13.222 3.256,13.39 C 3.191,13.504 3.158,13.629 3.158,13.755 C 3.158,13.818 3.166,13.882 3.183,13.945 L 4.256,17.948 L 4.256,22.041 C 4.256,22.444 4.584,22.771 4.986,22.771 L 6.51,22.771 L 6.51,44.228 C 6.51,44.594 6.783,44.905 7.146,44.953 L 7.365,44.98 C 7.603,45.009 8.228,45.076 8.958,45.076 L 41.715,45.076 C 43.066,45.076 44.163,43.961 44.163,42.592 L 44.163,22.767 C 44.541,22.74 44.842,22.427 44.842,22.042 L 44.842,17.869 C 44.842,17.466 44.515,17.139 44.112,17.139 z "
   style="opacity:0.2"
   id="path552" />
    <path
   d="M 43.723,16.75 L 43.467,16.75 L 9.826,16.75 L 42.561,7.979 C 42.749,7.928 42.907,7.807 43.004,7.638 C 43.101,7.469 43.127,7.273 43.076,7.084 L 41.996,3.052 C 41.947,2.866 41.822,2.704 41.655,2.608 C 41.486,2.511 41.29,2.485 41.101,2.536 L 40.853,2.603 C 40.853,2.603 40.895,2.624 40.905,2.629 C 40.634,2.663 40.162,2.788 39.241,3.035 L 3.311,12.662 C 3.123,12.712 2.966,12.833 2.868,13.001 C 2.803,13.115 2.77,13.24 2.77,13.366 C 2.77,13.429 2.778,13.494 2.795,13.556 L 3.868,17.558 L 3.868,21.652 C 3.868,22.054 4.196,22.382 4.598,22.382 L 6.122,22.382 L 6.122,43.84 C 6.122,44.206 6.395,44.517 6.758,44.564 L 6.978,44.592 C 7.216,44.621 7.841,44.687 8.57,44.687 L 41.327,44.687 C 42.678,44.687 43.775,43.573 43.775,42.203 L 43.775,22.377 C 44.153,22.35 44.454,22.038 44.454,21.652 L 44.454,17.479 C 44.453,17.077 44.125,16.75 43.723,16.75 z "
   id="path553" />
    <path
   d="M 8.569,18.637 C 7.434,18.637 6.51,19.577 6.51,20.732 L 6.51,43.84 C 6.51,44.012 6.637,44.156 6.807,44.179 L 7.026,44.207 C 7.269,44.236 7.866,44.298 8.568,44.298 L 41.325,44.298 C 42.461,44.298 43.385,43.358 43.385,42.202 L 43.385,20.732 C 43.385,19.577 42.461,18.637 41.325,18.637 L 8.569,18.637 z "
   id="path554" />
    <path
   d="M 7.102,43.614 C 7.102,43.614 7.759,43.7 8.569,43.7 L 41.326,43.7 C 42.136,43.7 42.793,43.029 42.793,42.202 L 42.793,20.732 C 42.793,19.904 42.136,19.233 41.326,19.233 L 8.569,19.233 C 7.759,19.233 7.102,19.904 7.102,20.732 L 7.102,43.614 z "
   style="fill:white"
   id="path555" />
    <linearGradient
   x1="24.9478"
   y1="49.256802"
   x2="24.9478"
   y2="21.9475"
   id="XMLID_7_"
   gradientUnits="userSpaceOnUse">
      <stop
   style="stop-color:white;stop-opacity:1"
   offset="0.0056"
   id="stop557" />
      <stop
   style="stop-color:#f8f8fa;stop-opacity:1"
   offset="0.045"
   id="stop558" />
      <stop
   style="stop-color:#e4e4ec;stop-opacity:1"
   offset="0.1027"
   id="stop559" />
      <stop
   style="stop-color:#c4c4d4;stop-opacity:1"
   offset="0.17129999"
   id="stop560" />
      <stop
   style="stop-color:#bdbdcf;stop-opacity:1"
   offset="0.18539999"
   id="stop561" />
      <stop
   style="stop-color:#bebed0;stop-opacity:1"
   offset="0.18960001"
   id="stop562" />
      <stop
   style="stop-color:#cacad8;stop-opacity:1"
   offset="0.27509999"
   id="stop563" />
      <stop
   style="stop-color:#cecedb;stop-opacity:1"
   offset="0.35949999"
   id="stop564" />
      <stop
   style="stop-color:#e9e9ef;stop-opacity:1"
   offset="0.78649998"
   id="stop565" />
      <a:midPointStop
   offset="0.0056"
   style="stop-color:#FFFFFF"
   id="midPointStop566" />
      <a:midPointStop
   offset="0.625"
   style="stop-color:#FFFFFF"
   id="midPointStop567" />
      <a:midPointStop
   offset="0.1854"
   style="stop-color:#BDBDCF"
   id="midPointStop568" />
      <a:midPointStop
   offset="0.2954"
   style="stop-color:#BDBDCF"
   id="midPointStop569" />
      <a:midPointStop
   offset="0.3595"
   style="stop-color:#CECEDB"
   id="midPointStop570" />
      <a:midPointStop
   offset="0.5"
   style="stop-color:#CECEDB"
   id="midPointStop571" />
      <a:midPointStop
   offset="0.7865"
   style="stop-color:#E9E9EF"
   id="midPointStop572" />
    </linearGradient>
    <path
   d="M 7.102,43.614 C 7.102,43.614 7.759,43.7 8.569,43.7 L 41.326,43.7 C 42.136,43.7 42.793,43.029 42.793,42.202 L 42.793,20.732 C 42.793,19.904 42.136,19.233 41.326,19.233 L 8.569,19.233 C 7.759,19.233 7.102,19.904 7.102,20.732 L 7.102,43.614 z "
   style="opacity:0.8;fill:url(#XMLID_7_)"
   id="path573" />
    <path
   d="M 41.326,19.233 L 8.569,19.233 C 7.759,19.233 7.102,19.904 7.102,20.732 L 7.102,43.614 C 7.102,43.614 7.759,43.7 8.569,43.7 L 41.326,43.7 C 42.136,43.7 42.793,43.029 42.793,42.202 L 42.793,20.732 C 42.793,19.904 42.136,19.233 41.326,19.233 z M 41.77,42.202 C 41.77,42.464 41.571,42.676 41.327,42.676 L 8.569,42.676 C 8.412,42.676 8.266,42.672 8.126,42.666 C 8.126,40.925 8.126,20.732 8.126,20.732 C 8.126,20.471 8.325,20.257 8.569,20.257 L 41.326,20.257 C 41.57,20.257 41.769,20.47 41.769,20.732 L 41.769,42.202 L 41.77,42.202 z "
   style="opacity:0.5;fill:white"
   id="path574" />
    <linearGradient
   x1="24.9473"
   y1="21.0483"
   x2="24.9473"
   y2="23.099899"
   id="XMLID_8_"
   gradientUnits="userSpaceOnUse">
      <stop
   style="stop-color:#616161;stop-opacity:1"
   offset="0"
   id="stop576" />
      <stop
   style="stop-color:#88888a;stop-opacity:1"
   offset="0.1569"
   id="stop577" />
      <stop
   style="stop-color:#ababae;stop-opacity:1"
   offset="0.32600001"
   id="stop578" />
      <stop
   style="stop-color:#c6c6ca;stop-opacity:1"
   offset="0.49630001"
   id="stop579" />
      <stop
   style="stop-color:#d9d9df;stop-opacity:1"
   offset="0.66570002"
   id="stop580" />
      <stop
   style="stop-color:#e5e5eb;stop-opacity:1"
   offset="0.83399999"
   id="stop581" />
      <stop
   style="stop-color:#e9e9ef;stop-opacity:1"
   offset="1"
   id="stop582" />
      <a:midPointStop
   offset="0"
   style="stop-color:#616161"
   id="midPointStop583" />
      <a:midPointStop
   offset="0.2954"
   style="stop-color:#616161"
   id="midPointStop584" />
      <a:midPointStop
   offset="1"
   style="stop-color:#E9E9EF"
   id="midPointStop585" />
    </linearGradient>
    <path
   d="M 7.102,23.682 C 7.102,23.682 7.759,23.698 8.569,23.698 L 41.326,23.698 C 42.136,23.698 42.793,23.575 42.793,23.424 L 42.793,19.507 C 42.793,19.357 42.136,19.234 41.326,19.234 L 8.569,19.234 C 7.759,19.234 7.102,19.357 7.102,19.507 L 7.102,23.682 z "
   style="opacity:0.8;fill:url(#XMLID_8_)"
   id="path586" />
    <path
   d="M 43.467,17.139 L 4.597,17.139 C 4.409,17.139 4.256,17.292 4.256,17.48 L 4.256,21.653 C 4.256,21.841 4.409,21.994 4.597,21.994 L 43.722,21.994 C 43.911,21.994 44.064,21.841 44.064,21.653 L 44.064,17.48 C 44.064,17.292 43.912,17.139 43.722,17.139 L 43.467,17.139 L 43.467,17.139 z "
   id="path587" />
    <linearGradient
   x1="24.1597"
   y1="18.867701"
   x2="24.1597"
   y2="20.534201"
   id="XMLID_9_"
   gradientUnits="userSpaceOnUse">
      <stop
   style="stop-color:white;stop-opacity:1"
   offset="0"
   id="stop589" />
      <stop
   style="stop-color:#e9e9ef;stop-opacity:1"
   offset="1"
   id="stop590" />
      <a:midPointStop
   offset="0"
   style="stop-color:#FFFFFF"
   id="midPointStop591" />
      <a:midPointStop
   offset="0.5"
   style="stop-color:#FFFFFF"
   id="midPointStop592" />
      <a:midPointStop
   offset="1"
   style="stop-color:#E9E9EF"
   id="midPointStop593" />
    </linearGradient>
    <rect
   width="38.612999"
   height="3.661"
   x="4.8540001"
   y="17.735001"
   style="fill:url(#XMLID_9_)"
   id="rect594" />
    <linearGradient
   x1="311.22269"
   y1="17.458"
   x2="311.22269"
   y2="23.226101"
   id="XMLID_10_"
   gradientUnits="userSpaceOnUse"
   gradientTransform="matrix(1,0,0.2679,1,-292.7053,0)">
      <stop
   style="stop-color:#cecedb;stop-opacity:1"
   offset="0"
   id="stop596" />
      <stop
   style="stop-color:#828282;stop-opacity:1"
   offset="0.29769999"
   id="stop597" />
      <stop
   style="stop-color:black;stop-opacity:1"
   offset="1"
   id="stop598" />
      <a:midPointStop
   offset="0"
   style="stop-color:#CECEDB"
   id="midPointStop599" />
      <a:midPointStop
   offset="0.5"
   style="stop-color:#CECEDB"
   id="midPointStop600" />
      <a:midPointStop
   offset="0.2977"
   style="stop-color:#828282"
   id="midPointStop601" />
      <a:midPointStop
   offset="0.5"
   style="stop-color:#828282"
   id="midPointStop602" />
      <a:midPointStop
   offset="1"
   style="stop-color:#000000"
   id="midPointStop603" />
    </linearGradient>
    <path
   d="M 7.762,21.396 L 11.424,21.396 L 9.797,17.735 L 6.136,17.735 L 7.762,21.396 M 24.775,17.735 L 21.115,17.735 L 22.741,21.396 L 26.402,21.396 L 24.775,17.735 M 17.286,17.735 L 13.624,17.735 L 15.251,21.396 L 18.913,21.396 L 17.286,17.735 M 39.756,17.735 L 36.093,17.735 L 37.721,21.396 L 41.382,21.396 L 39.756,17.735 M 32.266,17.735 L 28.604,17.735 L 30.231,21.396 L 33.895,21.396 L 32.266,17.735 z "
   style="fill:url(#XMLID_10_)"
   id="path604" />
    <path
   d="M 41.203,2.911 L 40.955,2.978 C 40.956,2.978 40.956,2.978 40.956,2.978 L 3.411,13.038 C 3.323,13.061 3.249,13.119 3.203,13.197 C 3.157,13.275 3.145,13.368 3.169,13.455 L 4.25,17.488 C 4.299,17.67 4.486,17.778 4.668,17.729 L 42.461,7.603 C 42.643,7.554 42.751,7.367 42.701,7.185 L 41.622,3.153 C 41.599,3.066 41.541,2.991 41.463,2.945 C 41.384,2.9 41.291,2.888 41.203,2.911 z "
   id="path605" />
    <linearGradient
   x1="22.6689"
   y1="9.3192997"
   x2="23.184099"
   y2="11.2419"
   id="XMLID_11_"
   gradientUnits="userSpaceOnUse">
      <stop
   style="stop-color:white;stop-opacity:1"
   offset="0"
   id="stop607" />
      <stop
   style="stop-color:#cecedb;stop-opacity:1"
   offset="1"
   id="stop608" />
      <a:midPointStop
   offset="0"
   style="stop-color:#FFFFFF"
   id="midPointStop609" />
      <a:midPointStop
   offset="0.5"
   style="stop-color:#FFFFFF"
   id="midPointStop610" />
      <a:midPointStop
   offset="1"
   style="stop-color:#CECEDB"
   id="midPointStop611" />
    </linearGradient>
    <polygon
   points="4.761,17.085 42.06,7.091 41.111,3.555 3.814,13.548 4.761,17.085 "
   style="fill:url(#XMLID_11_)"
   id="polygon612" />
    <linearGradient
   x1="22.366699"
   y1="7.8495998"
   x2="24.2355"
   y2="14.8243"
   id="XMLID_12_"
   gradientUnits="userSpaceOnUse">
      <stop
   style="stop-color:#cecedb;stop-opacity:1"
   offset="0"
   id="stop614" />
      <stop
   style="stop-color:#cbcbd7;stop-opacity:1"
   offset="0.0054"
   id="stop615" />
      <stop
   style="stop-color:#a5a5ad;stop-opacity:1"
   offset="0.0705"
   id="stop616" />
      <stop
   style="stop-color:#87878c;stop-opacity:1"
   offset="0.1338"
   id="stop617" />
      <stop
   style="stop-color:#727274;stop-opacity:1"
   offset="0.19410001"
   id="stop618" />
      <stop
   style="stop-color:#656566;stop-opacity:1"
   offset="0.2502"
   id="stop619" />
      <stop
   style="stop-color:#616161;stop-opacity:1"
   offset="0.29769999"
   id="stop620" />
      <stop
   style="stop-color:black;stop-opacity:1"
   offset="1"
   id="stop621" />
      <a:midPointStop
   offset="0"
   style="stop-color:#CECEDB"
   id="midPointStop622" />
      <a:midPointStop
   offset="0.3269"
   style="stop-color:#CECEDB"
   id="midPointStop623" />
      <a:midPointStop
   offset="0.2977"
   style="stop-color:#616161"
   id="midPointStop624" />
      <a:midPointStop
   offset="0.5"
   style="stop-color:#616161"
   id="midPointStop625" />
      <a:midPointStop
   offset="1"
   style="stop-color:#000000"
   id="midPointStop626" />
    </linearGradient>
    <path
   d="M 7.57,16.333 L 11.108,15.386 L 9.537,12.015 L 6,12.963 L 7.57,16.333 M 24.004,8.139 L 20.467,9.087 L 22.038,12.457 L 25.576,11.509 L 24.004,8.139 M 16.77,10.077 L 13.233,11.025 L 14.805,14.395 L 18.341,13.446 L 16.77,10.077 M 38.473,4.262 L 34.938,5.209 L 36.509,8.579 L 40.046,7.632 L 38.473,4.262 M 31.239,6.201 L 27.701,7.147 L 29.273,10.518 L 32.81,9.57 L 31.239,6.201 z "
   style="fill:url(#XMLID_12_)"
   id="path627" />
    <polyline
   id="_x3C_Slice_x3E_"
   style="fill:none"
   points="0,48 0,0 48,0 48,48 " />
  </g>
<g
   transform="matrix(9.130455e-2,0,0,9.130455e-2,4.679651,-23.49356)"
   id="g3554"><path
     d="M 290.61109,594.7957 L 219.98933,594.7957 L 198.31334,583.14195 L 198.31334,550.27835 L 337.22612,537.45922 L 337.22612,580.34505 L 290.61109,589.43497 L 290.61109,594.7957 z "
     style="color:black;fill:black;fill-opacity:1;fill-rule:nonzero;stroke:none;stroke-width:1;stroke-linecap:round;stroke-linejoin:miter;marker:none;marker-start:none;marker-mid:none;marker-end:none;stroke-miterlimit:4;stroke-dasharray:none;stroke-dashoffset:0;stroke-opacity:1;visibility:visible;display:inline;overflow:visible"
     id="path5534" /><path
     d="M 65.22745,640.14176 L 383.60806,640.7115 L 383.55474,581.51042 L 292.24262,601.55488 L 159.3898,601.55488 L 65.22745,626.72699 C 59.68041,628.97045 57.84175,640.14176 65.22745,640.14176 z "
     style="color:black;fill:black;fill-opacity:1;fill-rule:nonzero;stroke:none;stroke-width:1;stroke-linecap:round;stroke-linejoin:miter;marker:none;marker-start:none;marker-mid:none;marker-end:none;stroke-miterlimit:4;stroke-dasharray:none;stroke-dashoffset:0;stroke-opacity:1;visibility:visible;display:inline;overflow:visible"
     id="path5536" /><path
     d="M 155.81493,666.86299 C 155.8149,678.17004 146.66376,687.34414 135.35675,687.37251 C 124.04974,687.40088 114.85268,678.27282 114.79591,666.96591 C 114.73914,655.65901 123.84407,646.43905 135.1508,646.35388 C 146.45752,646.26871 155.70032,655.35046 155.81389,666.65693"
     style="fill:black;fill-opacity:1;fill-rule:evenodd;stroke:none;stroke-width:1px;stroke-linecap:butt;stroke-linejoin:miter;stroke-opacity:1"
     id="path1874" /><path
     d="M 201.97733,666.86299 C 201.9773,678.17004 192.82616,687.34414 181.51915,687.37251 C 170.21214,687.40088 161.01508,678.27282 160.95831,666.96591 C 160.90154,655.65901 170.00647,646.43905 181.3132,646.35388 C 192.61992,646.26871 201.86272,655.35046 201.97629,666.65693"
     style="fill:black;fill-opacity:1;fill-rule:evenodd;stroke:none;stroke-width:1px;stroke-linecap:butt;stroke-linejoin:miter;stroke-opacity:1"
     id="path1876" /><path
     d="M 247.33033,666.86299 C 247.3303,678.17004 238.17916,687.34414 226.87215,687.37251 C 215.56514,687.40088 206.36808,678.27282 206.31131,666.96591 C 206.25454,655.65901 215.35947,646.43905 226.6662,646.35388 C 237.97292,646.26871 247.21572,655.35046 247.32929,666.65693"
     style="fill:black;fill-opacity:1;fill-rule:evenodd;stroke:none;stroke-width:1px;stroke-linecap:butt;stroke-linejoin:miter;stroke-opacity:1"
     id="path1880" /><path
     d="M 293.76333,666.86299 C 293.7633,678.17004 284.61216,687.34414 273.30515,687.37251 C 261.99814,687.40088 252.80108,678.27282 252.74431,666.96591 C 252.68754,655.65901 261.79247,646.43905 273.0992,646.35388 C 284.40592,646.26871 293.64872,655.35046 293.76229,666.65693"
     style="fill:black;fill-opacity:1;fill-rule:evenodd;stroke:none;stroke-width:1px;stroke-linecap:butt;stroke-linejoin:miter;stroke-opacity:1"
     id="path3511" /><path
     d="M 83.75265,646.62921 L 74.19015,647.06671 C 68.86449,660.31481 73.30023,672.43708 87.94015,681.41046 C 104.43763,691.5224 124.26113,701.25982 130.00265,701.41046 L 325.06515,701.47296 C 330.80667,701.32232 350.63018,691.58492 367.12765,681.47296 C 381.76757,672.49958 386.20331,660.34606 380.87765,647.09796 L 371.31515,646.69171 C 374.19279,659.08716 376.6764,667.4533 358.75265,675.94171 C 344.08271,682.88915 328.57628,691.15987 326.1589,691.66046 L 128.9089,691.62921 C 126.49153,691.1286 111.01634,682.82665 96.3464,675.87921 C 78.42265,667.39081 80.87501,659.02466 83.75265,646.62921 z M 60.44859,556.58616 L 60.44859,570.17368 L 193.64743,574.70285 L 193.64743,556.38029 L 60.44859,556.58616 z "
     style="color:black;fill:black;fill-opacity:1;fill-rule:nonzero;stroke:none;stroke-width:1;stroke-linecap:round;stroke-linejoin:miter;marker:none;marker-start:none;marker-mid:none;marker-end:none;stroke-miterlimit:4;stroke-dasharray:none;stroke-dashoffset:0;stroke-opacity:1;visibility:visible;display:inline;overflow:visible"
     id="path1890" /><path
     d="M 339.83623,667.93559 C 339.8362,679.24264 330.68506,688.41674 319.37805,688.44511 C 308.07104,688.47348 298.87398,679.34542 298.81721,668.03851 C 298.76044,656.73161 307.86537,647.51165 319.1721,647.42648 C 330.47882,647.34131 339.72162,656.42306 339.83519,667.72953"
     style="fill:black;fill-opacity:1;fill-rule:evenodd;stroke:none;stroke-width:1px;stroke-linecap:butt;stroke-linejoin:miter;stroke-opacity:1"
     id="path1884" /><path
     d="M 368.27196,658.40424 C 368.27194,664.84952 363.05558,670.07898 356.61031,670.09515 C 350.16504,670.11133 344.9225,664.90811 344.89014,658.4629 C 344.85778,652.0177 350.04781,646.7621 356.49291,646.71355 C 362.93802,646.665 368.20663,651.84182 368.27137,658.28678"
     style="fill:black;fill-opacity:1;fill-rule:evenodd;stroke:none;stroke-width:1px;stroke-linecap:butt;stroke-linejoin:miter;stroke-opacity:1"
     id="path1886" /><path
     d="M 110.01126,658.40424 C 110.01124,664.84952 104.79488,670.07898 98.34961,670.09515 C 91.90434,670.11133 86.6618,664.90811 86.62944,658.4629 C 86.59708,652.0177 91.78711,646.7621 98.23221,646.71355 C 104.67732,646.665 109.94593,651.84182 110.01067,658.28678"
     style="fill:black;fill-opacity:1;fill-rule:evenodd;stroke:none;stroke-width:1px;stroke-linecap:butt;stroke-linejoin:miter;stroke-opacity:1"
     id="path1888" /></g></svg>