<?xml version="1.0" encoding="iso-8859-1"?>
<!-- Generator: Adobe Illustrator 13.0.0, SVG Export Plug-In . SVG Version: 6.00 Build 14948)  -->
<!DOCTYPE svg PUBLIC "-//W3C//DTD SVG 1.1//EN" "http://www.w3.org/Graphics/SVG/1.1/DTD/svg11.dtd">
<svg version="1.1" id="Layer_1" xmlns="http://www.w3.org/2000/svg" xmlns:xlink="http://www.w3.org/1999/xlink" x="0px" y="0px"
	 width="128px" height="128px" viewBox="0 0 128 128" style="enable-background:new 0 0 128 128;" xml:space="preserve">
<g id="Layer_5">
	<path style="opacity:0.1;enable-background:new    ;" d="M115.667,44.333H28.714l84.306-22.87c1.601-0.434,2.545-2.082,2.11-3.681
		l-2.487-9.168c-0.435-1.599-2.08-2.544-3.681-2.11L10.037,33.34c-1.599,0.434-2.544,2.082-2.11,3.681l2.479,9.138
		c-0.154,0.361-0.24,0.758-0.24,1.175v9.5c0,1.657,1.343,3,3,3H16V117c0,2,0,2,2,2h94.5c2.209,0,4-1.791,4-4V59.702
		c1.249-0.363,2.167-1.502,2.167-2.868v-9.5C118.667,45.677,117.324,44.333,115.667,44.333z"/>
	<path style="opacity:0.1;enable-background:new    ;" d="M10.33,33.559l98.926-26.835c0.26-0.07,0.52-0.105,0.777-0.108
		c1.373-0.013,2.621,0.901,2.994,2.271l2.488,9.168c0.239,0.887,0.065,1.795-0.416,2.516c-0.402,0.604-1.012,1.057-1.748,1.257
		L29.59,44.55h86.389c1.67,0,3.028,1.333,3.071,2.991c0.002,0.028,0.005,0.293,0.005,0.321v9.263c0,1.368-0.91,2.532-2.168,2.922
		v55.244c0,2.25-1.824,4.076-4.074,4.076l0,0h-94.5c-2.043,0-2.075-0.032-2.075-2.076V60.2H13.48c-1.669,0-3.029-1.333-3.071-2.991
		c-0.003-0.027-0.004-0.293-0.004-0.321v-9.263c0-0.415,0.083-0.813,0.236-1.179L8.229,37.56c-0.007-0.027-0.075-0.283-0.08-0.311
		C7.756,35.638,8.719,33.997,10.33,33.559z"/>
	<path style="opacity:0.1;enable-background:new    ;" d="M10.623,33.778l98.926-26.835c0.268-0.072,0.537-0.109,0.807-0.111
		c1.41-0.008,2.681,0.936,3.059,2.327l2.486,9.168c0.238,0.875,0.082,1.776-0.385,2.513c-0.416,0.656-1.057,1.143-1.832,1.353
		L30.467,44.768h85.824c1.682,0,3.059,1.322,3.143,2.981c0.006,0.055,0.01,0.27,0.01,0.327v9.341c0,1.371-0.898,2.56-2.168,2.977
		v55.19c0,2.291-1.858,4.15-4.148,4.15l0,0h-94.5c-2.086,0-2.15-0.063-2.15-2.15V60.567h-2.683c-1.681,0-3.058-1.323-3.143-2.982
		c-0.005-0.056-0.008-0.27-0.008-0.327v-9.341c0-0.412,0.081-0.812,0.233-1.184L8.45,37.795c-0.015-0.055-0.068-0.262-0.077-0.316
		C8.02,35.854,9.001,34.219,10.623,33.778z"/>
	<path style="opacity:0.1;enable-background:new    ;" d="M10.916,33.997l98.926-26.835c0.275-0.074,0.555-0.112,0.836-0.113
		c1.447-0.004,2.735,0.97,3.119,2.383l2.488,9.168c0.234,0.863,0.1,1.758-0.354,2.509c-0.429,0.711-1.104,1.229-1.916,1.448
		L31.343,44.984h85.261c1.694,0,3.088,1.312,3.213,2.972c0.012,0.083,0.016,0.247,0.016,0.332v9.419c0,1.373-0.893,2.586-2.168,3.03
		v55.137c0,2.332-1.896,4.226-4.227,4.226l0,0h-94.5c-2.13,0-2.227-0.096-2.227-2.226v-56.94h-2.607
		c-1.693,0-3.086-1.312-3.213-2.974c-0.008-0.083-0.013-0.247-0.013-0.332v-9.419c0-0.41,0.078-0.811,0.229-1.188l-2.44-8.989
		c-0.022-0.083-0.061-0.241-0.075-0.323C8.282,36.071,9.282,34.442,10.916,33.997z"/>
	<path style="opacity:0.1;enable-background:new    ;" d="M113.749,120.468H19.25c-2.173,0-2.302-0.128-2.302-2.302V61.301h-2.531
		c-1.819,0-3.302-1.481-3.302-3.302V48.5c0-0.408,0.075-0.809,0.226-1.192l-2.455-9.041c-0.474-1.758,0.567-3.573,2.322-4.051
		l98.926-26.834c0.284-0.077,0.573-0.116,0.865-0.116c1.483,0,2.792,1.004,3.183,2.438l2.487,9.167
		c0.231,0.851,0.115,1.739-0.321,2.505c-0.438,0.766-1.148,1.314-2,1.544L32.219,45.201h84.697c1.818,0,3.302,1.48,3.302,3.299
		v9.499c0,1.375-0.882,2.613-2.168,3.084v55.083C118.05,118.539,116.121,120.468,113.749,120.468L113.749,120.468z"/>
</g>
<g id="Layer_4">
	<path d="M116.5,115c0,2.209-1.791,4-4,4H18c-2,0-2,0-2-2V54.25c0-2.209,1.791-4,4-4h92.5c2.209,0,4,1.791,4,4V115z"/>
	<g>
		
			<linearGradient id="SVGID_1_" gradientUnits="userSpaceOnUse" x1="308.5" y1="-264.875" x2="308.5" y2="-322" gradientTransform="matrix(1 0 0 -1 -242 -205)">
			<stop  offset="0" style="stop-color:#E6E6EC"/>
			<stop  offset="0.0714" style="stop-color:#EDEDF2"/>
			<stop  offset="1" style="stop-color:#D2D2DF"/>
		</linearGradient>
		<path style="fill:url(#SVGID_1_);" d="M114,113c0,2.209-1.791,4-4,4H19V59.875h95V113z"/>
	</g>
	<path style="opacity:0.2;enable-background:new    ;" d="M89.259,84.564l-37.25-21.75c-0.312-0.182-0.66-0.273-1.008-0.273
		c-0.344,0-0.688,0.088-0.996,0.266C49.383,63.164,49,63.826,49,64.542v43.875c0,0.719,0.386,1.383,1.011,1.737
		c0.307,0.176,0.648,0.263,0.989,0.263c0.354,0,0.707-0.094,1.021-0.28l37.25-22.125c0.607-0.361,0.979-1.019,0.979-1.728
		C90.247,85.576,89.87,84.922,89.259,84.564z"/>
	<path style="opacity:0.2;enable-background:new    ;" d="M89.62,84.592L52.369,62.843c-0.312-0.182-0.66-0.273-1.008-0.273
		c-0.344,0-0.688,0.088-0.996,0.266c-0.621,0.356-1.004,1.018-1.004,1.734v43.875c0,0.719,0.386,1.383,1.011,1.738
		c0.307,0.174,0.648,0.262,0.989,0.262c0.354,0,0.707-0.094,1.021-0.28l37.25-22.125c0.609-0.362,0.981-1.019,0.979-1.728
		C90.607,85.604,90.23,84.949,89.62,84.592z"/>
	<path style="opacity:0.2;enable-background:new    ;" d="M89.98,84.62L52.73,62.87c-0.312-0.182-0.66-0.273-1.008-0.273
		c-0.344,0-0.688,0.088-0.996,0.266c-0.621,0.356-1.004,1.018-1.004,1.735v43.875c0,0.719,0.386,1.383,1.011,1.738
		c0.307,0.175,0.648,0.262,0.989,0.262c0.354,0,0.707-0.094,1.021-0.279l37.25-22.125c0.608-0.361,0.981-1.02,0.979-1.729
		C90.969,85.632,90.592,84.979,89.98,84.62z"/>
	<path style="opacity:0.2;enable-background:new    ;" d="M90.342,84.646l-37.25-21.75c-0.312-0.182-0.66-0.273-1.008-0.273
		c-0.344,0-0.688,0.088-0.996,0.266c-0.621,0.356-1.004,1.018-1.004,1.734V108.5c0,0.719,0.386,1.383,1.011,1.738
		c0.307,0.175,0.648,0.262,0.989,0.262c0.354,0,0.707-0.094,1.021-0.279l37.25-22.125c0.607-0.363,0.979-1.02,0.979-1.729
		C91.33,85.659,90.953,85.005,90.342,84.646z"/>
	<g>
		
			<linearGradient id="SVGID_2_" gradientUnits="userSpaceOnUse" x1="553.125" y1="728.125" x2="553.125" y2="774.001" gradientTransform="matrix(1 0 0 1 -484 -665)">
			<stop  offset="0.0385" style="stop-color:#FFFFFF"/>
			<stop  offset="0.2088" style="stop-color:#BADCFF"/>
			<stop  offset="0.4176" style="stop-color:#3499FF"/>
			<stop  offset="0.5879" style="stop-color:#3499FF"/>
			<stop  offset="1" style="stop-color:#A5E8FF"/>
		</linearGradient>
		<path style="fill:url(#SVGID_2_);" d="M50.502,109.001c-0.171,0-0.343-0.046-0.496-0.133c-0.312-0.179-0.506-0.509-0.506-0.868
			V64.125c0-0.357,0.192-0.688,0.502-0.866c0.155-0.089,0.327-0.134,0.499-0.134c0.174,0,0.35,0.045,0.504,0.136l37.249,21.75
			c0.307,0.181,0.494,0.507,0.496,0.86c0,0.354-0.188,0.684-0.49,0.863l-37.249,22.125
			C50.854,108.953,50.678,109.001,50.502,109.001L50.502,109.001z"/>
		<path style="fill:#002191;" d="M50.5,64.125l37.25,21.75L50.5,108V64.125 M50.5,62.125c-0.344,0-0.688,0.088-0.996,0.266
			c-0.621,0.356-1.004,1.018-1.004,1.734V108c0,0.719,0.386,1.383,1.011,1.738C49.817,109.913,50.159,110,50.5,110
			c0.354,0,0.707-0.094,1.021-0.279l37.25-22.125c0.607-0.363,0.979-1.02,0.979-1.729c-0.003-0.708-0.38-1.362-0.991-1.721
			l-37.25-21.75C51.197,62.216,50.849,62.125,50.5,62.125L50.5,62.125z"/>
	</g>
	<g style="opacity:0.34;">
		<path style="fill:#FFFFFF;" d="M50.5,64.125V108l1.734-1.029c0,0-0.049-26.449,0.88-34.721c0.155-1.384,1.795-2.325,3.273-1.716
			c7.951,3.28,30.164,16.053,30.164,16.053l1.199-0.712L50.5,64.125z"/>
	</g>
	
		<linearGradient id="SVGID_3_" gradientUnits="userSpaceOnUse" x1="535" y1="772" x2="535" y2="772" gradientTransform="matrix(1 0 0 1 -484 -665)">
		<stop  offset="0.0385" style="stop-color:#FFFFFF"/>
		<stop  offset="0.2088" style="stop-color:#BADCFF"/>
		<stop  offset="0.4176" style="stop-color:#3499FF"/>
		<stop  offset="0.5879" style="stop-color:#3499FF"/>
		<stop  offset="1" style="stop-color:#A5E8FF"/>
	</linearGradient>
	<path style="fill:url(#SVGID_3_);stroke:#002191;stroke-width:2;stroke-linejoin:round;" d="M51,107"/>
</g>
<g id="Layer_2">
	<path d="M118.667,56.833c0,1.657-1.343,3-3,3h-102.5c-1.657,0-3-1.343-3-3v-9.5c0-1.657,1.343-3,3-3h102.5c1.657,0,3,1.343,3,3
		V56.833z"/>
	<path d="M114.816,18.117c0.424,1.602-0.531,3.243-2.135,3.666L13.573,47.931c-1.602,0.422-3.243-0.534-3.666-2.135L7.483,36.61
		c-0.423-1.602,0.534-3.243,2.135-3.666l99.11-26.148c1.602-0.423,3.242,0.534,3.666,2.135L114.816,18.117z"/>
</g>
<g id="Layer_3">
	
		<linearGradient id="SVGID_4_" gradientUnits="userSpaceOnUse" x1="548.5" y1="712" x2="548.5" y2="721.834" gradientTransform="matrix(1 0 0 1 -484 -665)">
		<stop  offset="0" style="stop-color:#D3D3D3"/>
		<stop  offset="0.1209" style="stop-color:#FFFFFF"/>
		<stop  offset="0.3516" style="stop-color:#FFFFFF"/>
		<stop  offset="1" style="stop-color:#DCDCE1"/>
	</linearGradient>
	<rect x="13" y="47" style="fill:url(#SVGID_4_);" width="103" height="9.834"/>
	
		<linearGradient id="SVGID_5_" gradientUnits="userSpaceOnUse" x1="507.4482" y1="712" x2="507.4482" y2="721.7505" gradientTransform="matrix(1 0 0 1 -484 -665)">
		<stop  offset="0.0549" style="stop-color:#9B9BA3"/>
		<stop  offset="0.1154" style="stop-color:#B3B3BB"/>
		<stop  offset="1" style="stop-color:#3D3D3D"/>
	</linearGradient>
	<polygon style="fill:url(#SVGID_5_);" points="30.5,56.834 20.833,56.834 16.396,47 26.063,47 	"/>
	
		<linearGradient id="SVGID_6_" gradientUnits="userSpaceOnUse" x1="527.3652" y1="712" x2="527.3652" y2="721.7505" gradientTransform="matrix(1 0 0 1 -484 -665)">
		<stop  offset="0.0549" style="stop-color:#9B9BA3"/>
		<stop  offset="0.1154" style="stop-color:#B3B3BB"/>
		<stop  offset="1" style="stop-color:#3D3D3D"/>
	</linearGradient>
	<polygon style="fill:url(#SVGID_6_);" points="50.417,56.834 40.749,56.834 36.313,47 45.979,47 	"/>
	
		<linearGradient id="SVGID_7_" gradientUnits="userSpaceOnUse" x1="547.2813" y1="712" x2="547.2813" y2="721.7505" gradientTransform="matrix(1 0 0 1 -484 -665)">
		<stop  offset="0.0549" style="stop-color:#9B9BA3"/>
		<stop  offset="0.1154" style="stop-color:#B3B3BB"/>
		<stop  offset="1" style="stop-color:#3D3D3D"/>
	</linearGradient>
	<polygon style="fill:url(#SVGID_7_);" points="70.333,56.834 60.666,56.834 56.229,47 65.896,47 	"/>
	
		<linearGradient id="SVGID_8_" gradientUnits="userSpaceOnUse" x1="567.1982" y1="712" x2="567.1982" y2="721.7505" gradientTransform="matrix(1 0 0 1 -484 -665)">
		<stop  offset="0.0549" style="stop-color:#9B9BA3"/>
		<stop  offset="0.1154" style="stop-color:#B3B3BB"/>
		<stop  offset="1" style="stop-color:#3D3D3D"/>
	</linearGradient>
	<polygon style="fill:url(#SVGID_8_);" points="90.25,56.834 80.582,56.834 76.146,47 85.813,47 	"/>
	
		<linearGradient id="SVGID_9_" gradientUnits="userSpaceOnUse" x1="587.1143" y1="712" x2="587.1143" y2="721.7505" gradientTransform="matrix(1 0 0 1 -484 -665)">
		<stop  offset="0.0549" style="stop-color:#9B9BA3"/>
		<stop  offset="0.1154" style="stop-color:#B3B3BB"/>
		<stop  offset="1" style="stop-color:#3D3D3D"/>
	</linearGradient>
	<polygon style="fill:url(#SVGID_9_);" points="110.166,56.834 100.499,56.834 96.063,47 105.729,47 	"/>
	
		<linearGradient id="SVGID_10_" gradientUnits="userSpaceOnUse" x1="358.0059" y1="790.3359" x2="358.0059" y2="800.1729" gradientTransform="matrix(0.9654 -0.2609 0.2609 0.9654 -492.1005 -647.085)">
		<stop  offset="0" style="stop-color:#D3D3D3"/>
		<stop  offset="0.1209" style="stop-color:#FFFFFF"/>
		<stop  offset="0.3516" style="stop-color:#FFFFFF"/>
		<stop  offset="1" style="stop-color:#DCDCE1"/>
	</linearGradient>
	<polygon style="fill:url(#SVGID_10_);" points="111.999,18.563 12.566,45.431 10,35.938 109.436,9.069 	"/>
	
		<linearGradient id="SVGID_11_" gradientUnits="userSpaceOnUse" x1="316.9541" y1="790.3359" x2="316.9541" y2="800.0859" gradientTransform="matrix(0.9654 -0.2609 0.2609 0.9654 -492.1005 -647.085)">
		<stop  offset="0.0549" style="stop-color:#9B9BA3"/>
		<stop  offset="0.1154" style="stop-color:#B3B3BB"/>
		<stop  offset="1" style="stop-color:#3D3D3D"/>
	</linearGradient>
	<polygon style="fill:url(#SVGID_11_);" points="29.459,40.866 20.127,43.388 13.278,35.052 22.611,32.53 	"/>
	
		<linearGradient id="SVGID_12_" gradientUnits="userSpaceOnUse" x1="336.8711" y1="790.3359" x2="336.8711" y2="800.087" gradientTransform="matrix(0.9654 -0.2609 0.2609 0.9654 -492.1005 -647.085)">
		<stop  offset="0.0549" style="stop-color:#9B9BA3"/>
		<stop  offset="0.1154" style="stop-color:#B3B3BB"/>
		<stop  offset="1" style="stop-color:#3D3D3D"/>
	</linearGradient>
	<polygon style="fill:url(#SVGID_12_);" points="48.687,35.671 39.354,38.192 32.505,29.856 41.838,27.335 	"/>
	
		<linearGradient id="SVGID_13_" gradientUnits="userSpaceOnUse" x1="356.7871" y1="790.3379" x2="356.7871" y2="800.0903" gradientTransform="matrix(0.9654 -0.2609 0.2609 0.9654 -492.1005 -647.085)">
		<stop  offset="0.0549" style="stop-color:#9B9BA3"/>
		<stop  offset="0.1154" style="stop-color:#B3B3BB"/>
		<stop  offset="1" style="stop-color:#3D3D3D"/>
	</linearGradient>
	<polygon style="fill:url(#SVGID_13_);" points="67.914,30.475 58.581,32.997 51.733,24.661 61.065,22.139 	"/>
	
		<linearGradient id="SVGID_14_" gradientUnits="userSpaceOnUse" x1="376.7031" y1="790.3389" x2="376.7031" y2="800.0874" gradientTransform="matrix(0.9654 -0.2609 0.2609 0.9654 -492.1005 -647.085)">
		<stop  offset="0.0549" style="stop-color:#9B9BA3"/>
		<stop  offset="0.1154" style="stop-color:#B3B3BB"/>
		<stop  offset="1" style="stop-color:#3D3D3D"/>
	</linearGradient>
	<polygon style="fill:url(#SVGID_14_);" points="87.141,25.28 77.809,27.802 70.96,19.466 80.292,16.944 	"/>
	
		<linearGradient id="SVGID_15_" gradientUnits="userSpaceOnUse" x1="396.6191" y1="790.3398" x2="396.6191" y2="800.0898" gradientTransform="matrix(0.9654 -0.2609 0.2609 0.9654 -492.1005 -647.085)">
		<stop  offset="0.0549" style="stop-color:#9B9BA3"/>
		<stop  offset="0.1154" style="stop-color:#B3B3BB"/>
		<stop  offset="1" style="stop-color:#3D3D3D"/>
	</linearGradient>
	<polygon style="fill:url(#SVGID_15_);" points="106.367,20.084 97.035,22.606 90.188,14.271 99.52,11.749 	"/>
</g>
</svg>
