<?xml version="1.0" encoding="UTF-8" standalone="no"?>
<!-- Created with Inkscape (http://www.inkscape.org/) -->
<svg
   xmlns:svg="http://www.w3.org/2000/svg"
   xmlns="http://www.w3.org/2000/svg"
   xmlns:xlink="http://www.w3.org/1999/xlink"
   version="1.0"
   width="128"
   height="128"
   id="svg2757">
  <defs
     id="defs2760">
    <linearGradient
       x1="24.9478"
       y1="49.256802"
       x2="24.9478"
       y2="21.9475"
       id="XMLID_7_"
       gradientUnits="userSpaceOnUse">
      <stop
         id="stop557"
         style="stop-color:#ffffff;stop-opacity:1"
         offset="0.0056" />
      <stop
         id="stop558"
         style="stop-color:#f8f8fa;stop-opacity:1"
         offset="0.045" />
      <stop
         id="stop559"
         style="stop-color:#e4e4ec;stop-opacity:1"
         offset="0.1027" />
      <stop
         id="stop560"
         style="stop-color:#c4c4d4;stop-opacity:1"
         offset="0.17129999" />
      <stop
         id="stop561"
         style="stop-color:#bdbdcf;stop-opacity:1"
         offset="0.18539999" />
      <stop
         id="stop562"
         style="stop-color:#bebed0;stop-opacity:1"
         offset="0.18960001" />
      <stop
         id="stop563"
         style="stop-color:#cacad8;stop-opacity:1"
         offset="0.27509999" />
      <stop
         id="stop564"
         style="stop-color:#cecedb;stop-opacity:1"
         offset="0.35949999" />
      <stop
         id="stop565"
         style="stop-color:#e9e9ef;stop-opacity:1"
         offset="0.78649998" />
    </linearGradient>
    <linearGradient
       x1="24.9473"
       y1="21.0483"
       x2="24.9473"
       y2="23.099899"
       id="XMLID_8_"
       gradientUnits="userSpaceOnUse">
      <stop
         id="stop576"
         style="stop-color:#616161;stop-opacity:1"
         offset="0" />
      <stop
         id="stop577"
         style="stop-color:#88888a;stop-opacity:1"
         offset="0.1569" />
      <stop
         id="stop578"
         style="stop-color:#ababae;stop-opacity:1"
         offset="0.32600001" />
      <stop
         id="stop579"
         style="stop-color:#c6c6ca;stop-opacity:1"
         offset="0.49630001" />
      <stop
         id="stop580"
         style="stop-color:#d9d9df;stop-opacity:1"
         offset="0.66570002" />
      <stop
         id="stop581"
         style="stop-color:#e5e5eb;stop-opacity:1"
         offset="0.83399999" />
      <stop
         id="stop582"
         style="stop-color:#e9e9ef;stop-opacity:1"
         offset="1" />
    </linearGradient>
    <linearGradient
       x1="24.1597"
       y1="18.867701"
       x2="24.1597"
       y2="20.534201"
       id="XMLID_9_"
       gradientUnits="userSpaceOnUse">
      <stop
         id="stop589"
         style="stop-color:#ffffff;stop-opacity:1"
         offset="0" />
      <stop
         id="stop590"
         style="stop-color:#e9e9ef;stop-opacity:1"
         offset="1" />
    </linearGradient>
    <linearGradient
       x1="311.22269"
       y1="17.458"
       x2="311.22269"
       y2="23.226101"
       id="XMLID_10_"
       gradientUnits="userSpaceOnUse"
       gradientTransform="matrix(1,0,0.2679,1,-292.7053,0)">
      <stop
         id="stop596"
         style="stop-color:#cecedb;stop-opacity:1"
         offset="0" />
      <stop
         id="stop597"
         style="stop-color:#828282;stop-opacity:1"
         offset="0.29769999" />
      <stop
         id="stop598"
         style="stop-color:#000000;stop-opacity:1"
         offset="1" />
    </linearGradient>
    <linearGradient
       x1="22.6689"
       y1="9.3192997"
       x2="23.184099"
       y2="11.2419"
       id="XMLID_11_"
       gradientUnits="userSpaceOnUse">
      <stop
         id="stop607"
         style="stop-color:#ffffff;stop-opacity:1"
         offset="0" />
      <stop
         id="stop608"
         style="stop-color:#cecedb;stop-opacity:1"
         offset="1" />
    </linearGradient>
    <linearGradient
       x1="22.366699"
       y1="7.8495998"
       x2="24.2355"
       y2="14.8243"
       id="XMLID_12_"
       gradientUnits="userSpaceOnUse">
      <stop
         id="stop614"
         style="stop-color:#cecedb;stop-opacity:1"
         offset="0" />
      <stop
         id="stop615"
         style="stop-color:#cbcbd7;stop-opacity:1"
         offset="0.0054" />
      <stop
         id="stop616"
         style="stop-color:#a5a5ad;stop-opacity:1"
         offset="0.0705" />
      <stop
         id="stop617"
         style="stop-color:#87878c;stop-opacity:1"
         offset="0.1338" />
      <stop
         id="stop618"
         style="stop-color:#727274;stop-opacity:1"
         offset="0.19410001" />
      <stop
         id="stop619"
         style="stop-color:#656566;stop-opacity:1"
         offset="0.2502" />
      <stop
         id="stop620"
         style="stop-color:#616161;stop-opacity:1"
         offset="0.29769999" />
      <stop
         id="stop621"
         style="stop-color:#000000;stop-opacity:1"
         offset="1" />
    </linearGradient>
  </defs>
  <g
     transform="scale(2.6666667,2.6666667)"
     id="g1045">
    <path
       d="M 44.5,17.527 L 44.244,17.527 L 10.604,17.527 L 43.339,8.756 C 43.527,8.705 43.685,8.585 43.782,8.415 C 43.879,8.246 43.905,8.05 43.854,7.861 L 42.774,3.829 C 42.726,3.644 42.6,3.481 42.433,3.385 C 42.264,3.288 42.067,3.262 41.879,3.313 L 41.633,3.38 C 41.633,3.38 41.674,3.401 41.684,3.407 C 41.414,3.441 40.941,3.566 40.02,3.813 L 4.088,13.439 C 3.9,13.489 3.743,13.61 3.645,13.778 C 3.58,13.892 3.546,14.016 3.546,14.143 C 3.546,14.207 3.554,14.271 3.571,14.333 L 4.644,18.335 L 4.644,22.43 C 4.644,22.832 4.971,23.159 5.373,23.159 L 6.897,23.159 L 6.897,44.616 C 6.897,44.982 7.17,45.294 7.533,45.341 L 7.753,45.368 C 7.991,45.397 8.616,45.464 9.346,45.464 L 42.104,45.464 C 43.454,45.464 44.551,44.35 44.551,42.98 L 44.551,23.155 C 44.929,23.128 45.231,22.815 45.231,22.431 L 45.231,18.257 C 45.231,17.855 44.903,17.527 44.5,17.527 z"
       id="path551"
       style="opacity:0.2" />
    <path
       d="M 44.112,17.139 L 43.855,17.139 L 10.215,17.139 L 42.95,8.367 C 43.138,8.317 43.296,8.196 43.393,8.026 C 43.49,7.858 43.516,7.661 43.466,7.472 L 42.386,3.44 C 42.337,3.255 42.213,3.093 42.045,2.996 C 41.876,2.899 41.68,2.873 41.491,2.924 L 41.243,2.99 C 41.243,2.99 41.285,3.011 41.295,3.016 C 41.024,3.051 40.552,3.175 39.631,3.422 L 3.699,13.051 C 3.511,13.101 3.354,13.222 3.256,13.39 C 3.191,13.504 3.158,13.629 3.158,13.755 C 3.158,13.818 3.166,13.882 3.183,13.945 L 4.256,17.948 L 4.256,22.041 C 4.256,22.444 4.584,22.771 4.986,22.771 L 6.51,22.771 L 6.51,44.228 C 6.51,44.594 6.783,44.905 7.146,44.953 L 7.365,44.98 C 7.603,45.009 8.228,45.076 8.958,45.076 L 41.715,45.076 C 43.066,45.076 44.163,43.961 44.163,42.592 L 44.163,22.767 C 44.541,22.74 44.842,22.427 44.842,22.042 L 44.842,17.869 C 44.842,17.466 44.515,17.139 44.112,17.139 z"
       id="path552"
       style="opacity:0.2" />
    <path
       d="M 43.723,16.75 L 43.467,16.75 L 9.826,16.75 L 42.561,7.979 C 42.749,7.928 42.907,7.807 43.004,7.638 C 43.101,7.469 43.127,7.273 43.076,7.084 L 41.996,3.052 C 41.947,2.866 41.822,2.704 41.655,2.608 C 41.486,2.511 41.29,2.485 41.101,2.536 L 40.853,2.603 C 40.853,2.603 40.895,2.624 40.905,2.629 C 40.634,2.663 40.162,2.788 39.241,3.035 L 3.311,12.662 C 3.123,12.712 2.966,12.833 2.868,13.001 C 2.803,13.115 2.77,13.24 2.77,13.366 C 2.77,13.429 2.778,13.494 2.795,13.556 L 3.868,17.558 L 3.868,21.652 C 3.868,22.054 4.196,22.382 4.598,22.382 L 6.122,22.382 L 6.122,43.84 C 6.122,44.206 6.395,44.517 6.758,44.564 L 6.978,44.592 C 7.216,44.621 7.841,44.687 8.57,44.687 L 41.327,44.687 C 42.678,44.687 43.775,43.573 43.775,42.203 L 43.775,22.377 C 44.153,22.35 44.454,22.038 44.454,21.652 L 44.454,17.479 C 44.453,17.077 44.125,16.75 43.723,16.75 z"
       id="path553" />
    <path
       d="M 8.569,18.637 C 7.434,18.637 6.51,19.577 6.51,20.732 L 6.51,43.84 C 6.51,44.012 6.637,44.156 6.807,44.179 L 7.026,44.207 C 7.269,44.236 7.866,44.298 8.568,44.298 L 41.325,44.298 C 42.461,44.298 43.385,43.358 43.385,42.202 L 43.385,20.732 C 43.385,19.577 42.461,18.637 41.325,18.637 L 8.569,18.637 z"
       id="path554" />
    <path
       d="M 7.102,43.614 C 7.102,43.614 7.759,43.7 8.569,43.7 L 41.326,43.7 C 42.136,43.7 42.793,43.029 42.793,42.202 L 42.793,20.732 C 42.793,19.904 42.136,19.233 41.326,19.233 L 8.569,19.233 C 7.759,19.233 7.102,19.904 7.102,20.732 L 7.102,43.614 z"
       id="path555"
       style="fill:#ffffff" />
    <path
       d="M 7.102,43.614 C 7.102,43.614 7.759,43.7 8.569,43.7 L 41.326,43.7 C 42.136,43.7 42.793,43.029 42.793,42.202 L 42.793,20.732 C 42.793,19.904 42.136,19.233 41.326,19.233 L 8.569,19.233 C 7.759,19.233 7.102,19.904 7.102,20.732 L 7.102,43.614 z"
       id="path573"
       style="opacity:0.8;fill:url(#XMLID_7_)" />
    <path
       d="M 41.326,19.233 L 8.569,19.233 C 7.759,19.233 7.102,19.904 7.102,20.732 L 7.102,43.614 C 7.102,43.614 7.759,43.7 8.569,43.7 L 41.326,43.7 C 42.136,43.7 42.793,43.029 42.793,42.202 L 42.793,20.732 C 42.793,19.904 42.136,19.233 41.326,19.233 z M 41.77,42.202 C 41.77,42.464 41.571,42.676 41.327,42.676 L 8.569,42.676 C 8.412,42.676 8.266,42.672 8.126,42.666 C 8.126,40.925 8.126,20.732 8.126,20.732 C 8.126,20.471 8.325,20.257 8.569,20.257 L 41.326,20.257 C 41.57,20.257 41.769,20.47 41.769,20.732 L 41.769,42.202 L 41.77,42.202 z"
       id="path574"
       style="opacity:0.5;fill:#ffffff" />
    <path
       d="M 7.102,23.682 C 7.102,23.682 7.759,23.698 8.569,23.698 L 41.326,23.698 C 42.136,23.698 42.793,23.575 42.793,23.424 L 42.793,19.507 C 42.793,19.357 42.136,19.234 41.326,19.234 L 8.569,19.234 C 7.759,19.234 7.102,19.357 7.102,19.507 L 7.102,23.682 z"
       id="path586"
       style="opacity:0.8;fill:url(#XMLID_8_)" />
    <path
       d="M 43.467,17.139 L 4.597,17.139 C 4.409,17.139 4.256,17.292 4.256,17.48 L 4.256,21.653 C 4.256,21.841 4.409,21.994 4.597,21.994 L 43.722,21.994 C 43.911,21.994 44.064,21.841 44.064,21.653 L 44.064,17.48 C 44.064,17.292 43.912,17.139 43.722,17.139 L 43.467,17.139 L 43.467,17.139 z"
       id="path587" />
    <rect
       width="38.612999"
       height="3.661"
       x="4.8540001"
       y="17.735001"
       id="rect594"
       style="fill:url(#XMLID_9_)" />
    <path
       d="M 7.762,21.396 L 11.424,21.396 L 9.797,17.735 L 6.136,17.735 L 7.762,21.396 M 24.775,17.735 L 21.115,17.735 L 22.741,21.396 L 26.402,21.396 L 24.775,17.735 M 17.286,17.735 L 13.624,17.735 L 15.251,21.396 L 18.913,21.396 L 17.286,17.735 M 39.756,17.735 L 36.093,17.735 L 37.721,21.396 L 41.382,21.396 L 39.756,17.735 M 32.266,17.735 L 28.604,17.735 L 30.231,21.396 L 33.895,21.396 L 32.266,17.735 z"
       id="path604"
       style="fill:url(#XMLID_10_)" />
    <path
       d="M 41.203,2.911 L 40.955,2.978 C 40.956,2.978 40.956,2.978 40.956,2.978 L 3.411,13.038 C 3.323,13.061 3.249,13.119 3.203,13.197 C 3.157,13.275 3.145,13.368 3.169,13.455 L 4.25,17.488 C 4.299,17.67 4.486,17.778 4.668,17.729 L 42.461,7.603 C 42.643,7.554 42.751,7.367 42.701,7.185 L 41.622,3.153 C 41.599,3.066 41.541,2.991 41.463,2.945 C 41.384,2.9 41.291,2.888 41.203,2.911 z"
       id="path605" />
    <polygon
       points="4.761,17.085 42.06,7.091 41.111,3.555 3.814,13.548 4.761,17.085 "
       id="polygon612"
       style="fill:url(#XMLID_11_)" />
    <path
       d="M 7.57,16.333 L 11.108,15.386 L 9.537,12.015 L 6,12.963 L 7.57,16.333 M 24.004,8.139 L 20.467,9.087 L 22.038,12.457 L 25.576,11.509 L 24.004,8.139 M 16.77,10.077 L 13.233,11.025 L 14.805,14.395 L 18.341,13.446 L 16.77,10.077 M 38.473,4.262 L 34.938,5.209 L 36.509,8.579 L 40.046,7.632 L 38.473,4.262 M 31.239,6.201 L 27.701,7.147 L 29.273,10.518 L 32.81,9.57 L 31.239,6.201 z"
       id="path627"
       style="fill:url(#XMLID_12_)" />
  </g>
  <g
     transform="matrix(0.1926525,0,0,0.1926525,20.303896,46.404237)"
     id="g2196">
    <g
       id="g2184">
      <path
         d="M 104,75.5 C 82.008903,77.926416 55.5,73 38,73.5 C 20.5,74 15,76.5 13,82 C 11,87.5 12.5,104 15,112.5 C 17.5,121 25.59823,142.72453 33,156.5 C 37.133061,164.19206 46.5,183 54,191 C 61.5,199 78.5,216.5 85,221.5 C 91.5,226.5 106,237.5 111.5,246.5 C 117,255.5 137.5,274.5 146,277.5 C 154.5,280.5 167,284 184.5,278.5 C 202,273 211.5,260 213.5,254.5 C 215.5,249 221.5,229 221.5,216 C 221.5,203 228,173 230,167.5 C 232,162 237,136.5 236,125 C 235,113.5 232.5,85.5 229,73 C 225.5,60.5 217.5,34 213,29 C 208.5,24 204.5,14.5 197.5,17 C 190.5,19.5 167.5,37 161.5,43 C 155.5,49 143.20937,58.465074 135.5,63 C 118.5,73 114.30598,74.362876 104,75.5 z"
         id="path2202"
         style="fill:#ffffff;fill-opacity:1;fill-rule:evenodd;stroke:#000000;stroke-width:6.5;stroke-linecap:butt;stroke-linejoin:miter;stroke-miterlimit:4;stroke-dasharray:none;stroke-opacity:1" />
      <path
         d="M 159,151 L 199.5,96.5 L 214,116.5 L 159,151 z"
         id="path2204"
         style="fill:#000000;fill-opacity:1;fill-rule:evenodd;stroke:none;stroke-width:1px;stroke-linecap:butt;stroke-linejoin:miter;stroke-opacity:1" />
      <use
         transform="matrix(-0.807641,0.589674,0.589674,0.807641,166.6529,-54.66984)"
         id="use2206"
         style="fill:#000000;fill-opacity:1"
         x="0"
         y="0"
         width="480"
         height="360"
         xlink:href="#path2204" />
      <path
         d="M 162.75,217.5 C 147.07953,221.69889 131.48211,215.97924 126.25,219 C 122.26958,221.2981 122.58673,237.12161 140.25,250.25 C 152.56981,259.40682 169.11914,257.41071 176.25,255.5 C 183.96608,253.43248 197.7695,244.47146 202.25,227.75 C 205.12861,217.00689 201.37801,198.80706 196.5,197.5 C 188.40047,195.32974 177.57029,213.52892 162.75,217.5 z"
         id="path2208"
         style="fill:#000000;fill-opacity:1;fill-rule:evenodd;stroke:none;stroke-width:1px;stroke-linecap:butt;stroke-linejoin:miter;stroke-opacity:1" />
    </g>
    <g
       id="g2190">
      <path
         d="M 356.1774,128.58594 C 335.21838,121.49968 313.26881,105.84056 297.19431,98.9044 C 281.1198,91.96824 275.07854,91.912055 270.9432,96.053185 C 266.80786,100.19432 261.20043,115.78458 259.87748,124.54529 C 258.55454,133.30599 256.72221,156.4183 257.61505,172.03088 C 258.11359,180.74875 258.66285,201.75296 262.08343,212.17168 C 265.50401,222.5904 273.52475,245.63204 277.3056,252.90907 C 281.08646,260.1861 289.58563,276.28001 290.771,286.76071 C 291.95637,297.2414 302.51641,323.12064 308.95473,329.42922 C 315.39304,335.73779 325.24614,344.18861 343.43191,346.59238 C 361.61767,348.99614 375.71849,341.2233 379.85383,337.08218 C 383.98916,332.94105 397.87307,317.34499 403.36233,305.56075 C 408.8516,293.77653 427.41126,269.32681 431.54659,265.18567 C 435.68194,261.04453 450.98174,240.04059 454.93114,229.19384 C 458.88057,218.34708 468.4374,191.91005 470.54287,179.10118 C 472.64835,166.29231 476.58616,138.89261 474.61828,132.46008 C 472.65038,126.02756 473.03586,115.72701 465.63486,115.03745 C 458.23389,114.34788 429.99548,120.49948 422.0231,123.40484 C 414.05072,126.31022 398.91289,129.70037 390.00962,130.55589 C 370.37698,132.4424 365.99971,131.90688 356.1774,128.58594 z"
         id="path2210"
         style="fill:#000000;fill-opacity:1;fill-rule:evenodd;stroke:none;stroke-width:6.5;stroke-linecap:butt;stroke-linejoin:miter;stroke-miterlimit:4;stroke-dasharray:none;stroke-opacity:1" />
      <path
         d="M 346.01075,177.62456 L 286.097,209.57518 L 281.54059,185.29578 L 346.01075,177.62456 z"
         id="path2212"
         style="fill:#ffffff;fill-opacity:1;fill-rule:evenodd;stroke:none;stroke-width:1px;stroke-linecap:butt;stroke-linejoin:miter;stroke-opacity:1" />
      <use
         transform="matrix(-0.970847,-0.23969,-0.23969,0.970849,757.278,91.8524)"
         id="use2214"
         x="0"
         y="0"
         width="480"
         height="360"
         xlink:href="#path2212" />
      <path
         d="M 347.31848,297.52271 C 331.13875,296.33519 316.88973,304.87677 311.18418,302.89015 C 306.84359,301.37879 304.18946,285.77623 319.07917,269.57002 C 329.4645,258.26648 346.09466,257.12551 353.45726,257.66591 C 361.42409,258.25061 376.66236,264.46581 384.19742,280.05122 C 389.0385,290.06445 388.76541,308.64471 384.21881,310.84285 C 376.66955,314.49266 362.62041,298.64578 347.31848,297.52271 z"
         id="path2216"
         style="fill:#ffffff;fill-opacity:1;fill-rule:evenodd;stroke:none;stroke-width:1px;stroke-linecap:butt;stroke-linejoin:miter;stroke-opacity:1" />
    </g>
  </g>
</svg>
