<?xml version="1.0" encoding="UTF-8" standalone="no"?>
<!-- Created with Inkscape (http://www.inkscape.org/) -->

<svg
   xmlns:a="http://ns.adobe.com/AdobeSVGViewerExtensions/3.0/"
   xmlns:dc="http://purl.org/dc/elements/1.1/"
   xmlns:cc="http://creativecommons.org/ns#"
   xmlns:rdf="http://www.w3.org/1999/02/22-rdf-syntax-ns#"
   xmlns:svg="http://www.w3.org/2000/svg"
   xmlns="http://www.w3.org/2000/svg"
   xmlns:xlink="http://www.w3.org/1999/xlink"
   xmlns:sodipodi="http://sodipodi.sourceforge.net/DTD/sodipodi-0.dtd"
   xmlns:inkscape="http://www.inkscape.org/namespaces/inkscape"
   version="1.1"
   width="48pt"
   height="48pt"
   viewBox="0 0 48 48"
   id="svg548"
   xml:space="preserve"
   style="overflow:visible"
   inkscape:version="0.47pre4 r22446"
   sodipodi:docname="Romantic_comedy_film_clapperboard.svg"><metadata
   id="metadata3034"><rdf:RDF><cc:Work
       rdf:about=""><dc:format>image/svg+xml</dc:format><dc:type
         rdf:resource="http://purl.org/dc/dcmitype/StillImage" /></cc:Work></rdf:RDF></metadata><sodipodi:namedview
   pagecolor="#ffffff"
   bordercolor="#666666"
   borderopacity="1"
   objecttolerance="10"
   gridtolerance="10"
   guidetolerance="10"
   inkscape:pageopacity="0"
   inkscape:pageshadow="2"
   inkscape:window-width="1110"
   inkscape:window-height="711"
   id="namedview3032"
   showgrid="false"
   inkscape:zoom="1.8002564"
   inkscape:cx="0.2243806"
   inkscape:cy="56.732813"
   inkscape:window-x="0"
   inkscape:window-y="25"
   inkscape:window-maximized="0"
   inkscape:current-layer="g2917" />
  <defs
   id="defs630"><inkscape:perspective
     sodipodi:type="inkscape:persp3d"
     inkscape:vp_x="0 : 30 : 1"
     inkscape:vp_y="0 : 1000 : 0"
     inkscape:vp_z="60 : 30 : 1"
     inkscape:persp3d-origin="30 : 20 : 1"
     id="perspective3036" /><linearGradient
     x1="24.9478"
     y1="49.256802"
     x2="24.9478"
     y2="21.9475"
     id="XMLID_7_"
     gradientUnits="userSpaceOnUse">
      <stop
   id="stop557"
   style="stop-color:#ffffff;stop-opacity:1"
   offset="0.0056" />
      <stop
   id="stop558"
   style="stop-color:#f8f8fa;stop-opacity:1"
   offset="0.045" />
      <stop
   id="stop559"
   style="stop-color:#e4e4ec;stop-opacity:1"
   offset="0.1027" />
      <stop
   id="stop560"
   style="stop-color:#c4c4d4;stop-opacity:1"
   offset="0.17129999" />
      <stop
   id="stop561"
   style="stop-color:#bdbdcf;stop-opacity:1"
   offset="0.18539999" />
      <stop
   id="stop562"
   style="stop-color:#bebed0;stop-opacity:1"
   offset="0.18960001" />
      <stop
   id="stop563"
   style="stop-color:#cacad8;stop-opacity:1"
   offset="0.27509999" />
      <stop
   id="stop564"
   style="stop-color:#cecedb;stop-opacity:1"
   offset="0.35949999" />
      <stop
   id="stop565"
   style="stop-color:#e9e9ef;stop-opacity:1"
   offset="0.78649998" />
      <a:midPointStop
   offset="0.0056"
   style="stop-color:#FFFFFF"
   id="midPointStop566" />
      <a:midPointStop
   offset="0.625"
   style="stop-color:#FFFFFF"
   id="midPointStop567" />
      <a:midPointStop
   offset="0.1854"
   style="stop-color:#BDBDCF"
   id="midPointStop568" />
      <a:midPointStop
   offset="0.2954"
   style="stop-color:#BDBDCF"
   id="midPointStop569" />
      <a:midPointStop
   offset="0.3595"
   style="stop-color:#CECEDB"
   id="midPointStop570" />
      <a:midPointStop
   offset="0.5"
   style="stop-color:#CECEDB"
   id="midPointStop571" />
      <a:midPointStop
   offset="0.7865"
   style="stop-color:#E9E9EF"
   id="midPointStop572" />
    </linearGradient><linearGradient
     x1="24.9473"
     y1="21.0483"
     x2="24.9473"
     y2="23.099899"
     id="XMLID_8_"
     gradientUnits="userSpaceOnUse">
      <stop
   id="stop576"
   style="stop-color:#616161;stop-opacity:1"
   offset="0" />
      <stop
   id="stop577"
   style="stop-color:#88888a;stop-opacity:1"
   offset="0.1569" />
      <stop
   id="stop578"
   style="stop-color:#ababae;stop-opacity:1"
   offset="0.32600001" />
      <stop
   id="stop579"
   style="stop-color:#c6c6ca;stop-opacity:1"
   offset="0.49630001" />
      <stop
   id="stop580"
   style="stop-color:#d9d9df;stop-opacity:1"
   offset="0.66570002" />
      <stop
   id="stop581"
   style="stop-color:#e5e5eb;stop-opacity:1"
   offset="0.83399999" />
      <stop
   id="stop582"
   style="stop-color:#e9e9ef;stop-opacity:1"
   offset="1" />
      <a:midPointStop
   offset="0"
   style="stop-color:#616161"
   id="midPointStop583" />
      <a:midPointStop
   offset="0.2954"
   style="stop-color:#616161"
   id="midPointStop584" />
      <a:midPointStop
   offset="1"
   style="stop-color:#E9E9EF"
   id="midPointStop585" />
    </linearGradient><linearGradient
     x1="24.1597"
     y1="18.867701"
     x2="24.1597"
     y2="20.534201"
     id="XMLID_9_"
     gradientUnits="userSpaceOnUse">
      <stop
   id="stop589"
   style="stop-color:#ffffff;stop-opacity:1"
   offset="0" />
      <stop
   id="stop590"
   style="stop-color:#e9e9ef;stop-opacity:1"
   offset="1" />
      <a:midPointStop
   offset="0"
   style="stop-color:#FFFFFF"
   id="midPointStop591" />
      <a:midPointStop
   offset="0.5"
   style="stop-color:#FFFFFF"
   id="midPointStop592" />
      <a:midPointStop
   offset="1"
   style="stop-color:#E9E9EF"
   id="midPointStop593" />
    </linearGradient><linearGradient
     x1="311.22269"
     y1="17.458"
     x2="311.22269"
     y2="23.226101"
     id="XMLID_10_"
     gradientUnits="userSpaceOnUse"
     gradientTransform="matrix(1,0,0.2679,1,-292.7053,0)">
      <stop
   id="stop596"
   style="stop-color:#cecedb;stop-opacity:1"
   offset="0" />
      <stop
   id="stop597"
   style="stop-color:#828282;stop-opacity:1"
   offset="0.29769999" />
      <stop
   id="stop598"
   style="stop-color:#000000;stop-opacity:1"
   offset="1" />
      <a:midPointStop
   offset="0"
   style="stop-color:#CECEDB"
   id="midPointStop599" />
      <a:midPointStop
   offset="0.5"
   style="stop-color:#CECEDB"
   id="midPointStop600" />
      <a:midPointStop
   offset="0.2977"
   style="stop-color:#828282"
   id="midPointStop601" />
      <a:midPointStop
   offset="0.5"
   style="stop-color:#828282"
   id="midPointStop602" />
      <a:midPointStop
   offset="1"
   style="stop-color:#000000"
   id="midPointStop603" />
    </linearGradient><linearGradient
     x1="22.6689"
     y1="9.3192997"
     x2="23.184099"
     y2="11.2419"
     id="XMLID_11_"
     gradientUnits="userSpaceOnUse">
      <stop
   id="stop607"
   style="stop-color:#ffffff;stop-opacity:1"
   offset="0" />
      <stop
   id="stop608"
   style="stop-color:#cecedb;stop-opacity:1"
   offset="1" />
      <a:midPointStop
   offset="0"
   style="stop-color:#FFFFFF"
   id="midPointStop609" />
      <a:midPointStop
   offset="0.5"
   style="stop-color:#FFFFFF"
   id="midPointStop610" />
      <a:midPointStop
   offset="1"
   style="stop-color:#CECEDB"
   id="midPointStop611" />
    </linearGradient><linearGradient
     x1="22.366699"
     y1="7.8495998"
     x2="24.2355"
     y2="14.8243"
     id="XMLID_12_"
     gradientUnits="userSpaceOnUse">
      <stop
   id="stop614"
   style="stop-color:#cecedb;stop-opacity:1"
   offset="0" />
      <stop
   id="stop615"
   style="stop-color:#cbcbd7;stop-opacity:1"
   offset="0.0054" />
      <stop
   id="stop616"
   style="stop-color:#a5a5ad;stop-opacity:1"
   offset="0.0705" />
      <stop
   id="stop617"
   style="stop-color:#87878c;stop-opacity:1"
   offset="0.1338" />
      <stop
   id="stop618"
   style="stop-color:#727274;stop-opacity:1"
   offset="0.19410001" />
      <stop
   id="stop619"
   style="stop-color:#656566;stop-opacity:1"
   offset="0.2502" />
      <stop
   id="stop620"
   style="stop-color:#616161;stop-opacity:1"
   offset="0.29769999" />
      <stop
   id="stop621"
   style="stop-color:#000000;stop-opacity:1"
   offset="1" />
      <a:midPointStop
   offset="0"
   style="stop-color:#CECEDB"
   id="midPointStop622" />
      <a:midPointStop
   offset="0.3269"
   style="stop-color:#CECEDB"
   id="midPointStop623" />
      <a:midPointStop
   offset="0.2977"
   style="stop-color:#616161"
   id="midPointStop624" />
      <a:midPointStop
   offset="0.5"
   style="stop-color:#616161"
   id="midPointStop625" />
      <a:midPointStop
   offset="1"
   style="stop-color:#000000"
   id="midPointStop626" />
    </linearGradient><linearGradient
     x1="22.366699"
     y1="7.8495998"
     x2="24.2355"
     y2="14.8243"
     id="linearGradient2914"
     xlink:href="#XMLID_12_"
     gradientUnits="userSpaceOnUse" /><linearGradient
     x1="311.22269"
     y1="17.458"
     x2="311.22269"
     y2="23.226101"
     id="linearGradient2919"
     xlink:href="#XMLID_10_"
     gradientUnits="userSpaceOnUse"
     gradientTransform="matrix(1,0,0.2679,1,-292.7053,0)" /><linearGradient
     x1="24.1597"
     y1="18.867701"
     x2="24.1597"
     y2="20.534201"
     id="linearGradient2922"
     xlink:href="#XMLID_9_"
     gradientUnits="userSpaceOnUse" /><linearGradient
     x1="24.9473"
     y1="21.0483"
     x2="24.9473"
     y2="23.099899"
     id="linearGradient2926"
     xlink:href="#XMLID_8_"
     gradientUnits="userSpaceOnUse" /><linearGradient
     x1="24.9478"
     y1="49.256802"
     x2="24.9478"
     y2="21.9475"
     id="linearGradient2930"
     xlink:href="#XMLID_7_"
     gradientUnits="userSpaceOnUse" /><filter
     color-interpolation-filters="sRGB"
     id="filter3651"><feGaussianBlur
       id="feGaussianBlur3653"
       stdDeviation="0.73220339" /></filter><linearGradient
     id="linearGradient3594"><stop
       id="stop3596"
       style="stop-color:#fffe00;stop-opacity:1"
       offset="0" /><stop
       id="stop3604"
       style="stop-color:#ffc710;stop-opacity:1"
       offset="0.32916161" /><stop
       id="stop3602"
       style="stop-color:#ffd351;stop-opacity:1"
       offset="0.72281772" /><stop
       id="stop3598"
       style="stop-color:#ffffff;stop-opacity:1"
       offset="1" /></linearGradient><linearGradient
     id="linearGradient3608"><stop
       id="stop3614"
       style="stop-color:#fffe00;stop-opacity:1"
       offset="0" /><stop
       id="stop3616"
       style="stop-color:#f26510;stop-opacity:1"
       offset="1" /></linearGradient><linearGradient
     id="linearGradient3620"><stop
       id="stop3622"
       style="stop-color:#ca5600;stop-opacity:1"
       offset="0" /><stop
       id="stop3624"
       style="stop-color:#ffb800;stop-opacity:1"
       offset="1" /></linearGradient><linearGradient
     x1="3.3898296"
     y1="27.154867"
     x2="3.3898296"
     y2="1.3559322"
     id="linearGradient2952"
     xlink:href="#linearGradient3608"
     gradientUnits="userSpaceOnUse" /><linearGradient
     x1="33.177967"
     y1="0.85593224"
     x2="33.177967"
     y2="31.144068"
     id="linearGradient2954"
     xlink:href="#linearGradient3620"
     gradientUnits="userSpaceOnUse" /><linearGradient
     x1="3.3898296"
     y1="23.660105"
     x2="3.3898296"
     y2="3.2219775"
     id="linearGradient2956"
     xlink:href="#linearGradient3594"
     gradientUnits="userSpaceOnUse" /></defs>
  
  
  <path
   d="M 44.5,17.527 H 44.244 10.604 L 43.339,8.756 C 43.527,8.705 43.685,8.585 43.782,8.415 43.879,8.246 43.905,8.05 43.854,7.861 L 42.774,3.829 C 42.726,3.644 42.6,3.481 42.433,3.385 42.264,3.288 42.067,3.262 41.879,3.313 L 41.633,3.38 c 0,0 0.041,0.021 0.051,0.027 -0.27,0.034 -0.743,0.159 -1.664,0.406 L 4.088,13.439 C 3.9,13.489 3.743,13.61 3.645,13.778 3.58,13.892 3.546,14.016 3.546,14.143 c 0,0.064 0.008,0.128 0.025,0.19 l 1.073,4.002 v 4.095 c 0,0.402 0.327,0.729 0.729,0.729 h 1.524 v 21.457 c 0,0.366 0.273,0.678 0.636,0.725 l 0.22,0.027 c 0.238,0.029 0.863,0.096 1.593,0.096 h 32.758 c 1.35,0 2.447,-1.114 2.447,-2.484 V 23.155 c 0.378,-0.027 0.68,-0.34 0.68,-0.724 v -4.174 c 0,-0.402 -0.328,-0.73 -0.731,-0.73 z"
   id="path551"
   style="opacity:0.2" /><path
   d="M 44.112,17.139 H 43.855 10.215 L 42.95,8.367 C 43.138,8.317 43.296,8.196 43.393,8.026 43.49,7.858 43.516,7.661 43.466,7.472 L 42.386,3.44 C 42.337,3.255 42.213,3.093 42.045,2.996 41.876,2.899 41.68,2.873 41.491,2.924 L 41.243,2.99 c 0,0 0.042,0.021 0.052,0.026 -0.271,0.035 -0.743,0.159 -1.664,0.406 L 3.699,13.051 c -0.188,0.05 -0.345,0.171 -0.443,0.339 -0.065,0.114 -0.098,0.239 -0.098,0.365 0,0.063 0.008,0.127 0.025,0.19 l 1.073,4.003 v 4.093 c 0,0.403 0.328,0.73 0.73,0.73 H 6.51 v 21.457 c 0,0.366 0.273,0.677 0.636,0.725 l 0.219,0.027 c 0.238,0.029 0.863,0.096 1.593,0.096 h 32.757 c 1.351,0 2.448,-1.115 2.448,-2.484 V 22.767 c 0.378,-0.027 0.679,-0.34 0.679,-0.725 v -4.173 c 0,-0.403 -0.327,-0.73 -0.73,-0.73 z"
   id="path552"
   style="opacity:0.2" /><path
   d="m 43.723,16.75 -0.256,0 -33.641,0 32.735,-8.771 C 42.749,7.928 42.907,7.807 43.004,7.638 43.101,7.469 43.127,7.273 43.076,7.084 L 41.996,3.052 C 41.947,2.866 41.822,2.704 41.655,2.608 41.486,2.511 41.29,2.485 41.101,2.536 l -0.248,0.067 c 0,0 0.042,0.021 0.052,0.026 -0.271,0.034 -0.743,0.159 -1.664,0.406 l -35.93,9.627 c -0.188,0.05 -0.345,0.171 -0.443,0.339 -0.065,0.114 -0.098,0.239 -0.098,0.365 0,0.063 0.008,0.128 0.025,0.19 l 1.073,4.002 0,4.094 c 0,0.402 0.328,0.73 0.73,0.73 l 1.524,0 0,23.273727 c 0,0.411337 0.2276836,0.631473 0.636,0.631473 l 34.569,-2e-4 c 1.351,0 2.448,-1.114 2.448,-2.484 l 0,-21.426 c 0.378,-0.027 0.679,-0.339 0.679,-0.725 l 0,-4.173 C 44.453,17.077 44.125,16.75 43.723,16.75 z"
   id="path553" /><path
   d="m 7.102,45.3 34.224,0 c 0.81,0 1.467,-0.671 1.467,-1.498 l 0,-23.07 c 0,-0.828 -0.657,-1.499 -1.467,-1.499 l -32.757,0 c -0.81,0 -1.467,0.671 -1.467,1.499 l 0,24.568 z"
   id="path555"
   style="fill:#ffffff" /><path
   d="m 7.102,45.3 34.224,0 c 0.81,0 1.467,-0.671 1.467,-1.498 l 0,-23.07 c 0,-0.828 -0.657,-1.499 -1.467,-1.499 l -32.757,0 c -0.81,0 -1.467,0.671 -1.467,1.499 l 0,24.568 z"
   id="path573"
   style="opacity:0.8;fill:url(#linearGradient2930)" /><path
   d="m 41.326,19.233 -32.757,0 c -0.81,0 -1.467,0.671 -1.467,1.499 l 0,24.568 34.224,0 c 0.81,0 1.467,-0.671 1.467,-1.498 l 0,-23.07 c 0,-0.828 -0.657,-1.499 -1.467,-1.499 z m 0.444,24.569 c 0,0.262 -0.199,0.474 -0.443,0.474 l -33.201,0 c 0,-1.741 0,-23.544 0,-23.544 0,-0.261 0.199,-0.475 0.443,-0.475 l 32.757,0 c 0.244,0 0.443,0.213 0.443,0.475 l 0,23.07 0.001,0 z"
   id="path574"
   style="opacity:0.5;fill:#ffffff" /><path
   d="m 7.102,23.682 c 0,0 0.657,0.016 1.467,0.016 h 32.757 c 0.81,0 1.467,-0.123 1.467,-0.274 v -3.917 c 0,-0.15 -0.657,-0.273 -1.467,-0.273 H 8.569 c -0.81,0 -1.467,0.123 -1.467,0.273 v 4.175 z"
   id="path586"
   style="opacity:0.8;fill:url(#linearGradient2926)" /><path
   d="M 43.467,17.139 H 4.597 c -0.188,0 -0.341,0.153 -0.341,0.341 v 4.173 c 0,0.188 0.153,0.341 0.341,0.341 h 39.125 c 0.189,0 0.342,-0.153 0.342,-0.341 V 17.48 c 0,-0.188 -0.152,-0.341 -0.342,-0.341 h -0.255 z"
   id="path587" /><rect
   width="38.612999"
   height="3.661"
   x="4.8540001"
   y="17.735001"
   id="rect594"
   style="fill:url(#linearGradient2922)" /><path
   d="m 7.762,21.396 h 3.662 L 9.797,17.735 H 6.136 l 1.626,3.661 m 17.013,-3.661 h -3.66 l 1.626,3.661 h 3.661 l -1.627,-3.661 m -7.489,0 h -3.662 l 1.627,3.661 h 3.662 l -1.627,-3.661 m 22.47,0 h -3.663 l 1.628,3.661 h 3.661 l -1.626,-3.661 m -7.49,0 h -3.662 l 1.627,3.661 h 3.664 l -1.629,-3.661 z"
   id="path604"
   style="fill:url(#linearGradient2919)" /><path
   d="m 41.203,2.911 -0.248,0.067 c 0.001,0 0.001,0 0.001,0 L 3.411,13.038 c -0.088,0.023 -0.162,0.081 -0.208,0.159 -0.046,0.078 -0.058,0.171 -0.034,0.258 l 1.081,4.033 c 0.049,0.182 0.236,0.29 0.418,0.241 L 42.461,7.603 c 0.182,-0.049 0.29,-0.236 0.24,-0.418 L 41.622,3.153 C 41.599,3.066 41.541,2.991 41.463,2.945 41.384,2.9 41.291,2.888 41.203,2.911 z"
   id="path605" /><polygon
   points="42.06,7.091 41.111,3.555 3.814,13.548 4.761,17.085 "
   id="polygon612"
   style="fill:url(#XMLID_11_)" /><path
   d="M 7.57,16.333 11.108,15.386 9.537,12.015 6,12.963 l 1.57,3.37 m 16.434,-8.194 -3.537,0.948 1.571,3.37 3.538,-0.948 -1.572,-3.37 m -7.234,1.938 -3.537,0.948 1.572,3.37 3.536,-0.949 -1.571,-3.369 m 21.703,-5.815 -3.535,0.947 1.571,3.37 3.537,-0.947 -1.573,-3.37 M 31.239,6.201 27.701,7.147 29.273,10.518 32.81,9.57 31.239,6.201 z"
   id="path627"
   style="fill:url(#linearGradient2914)" /><polyline
   points="0,48 0,0 48,0 48,48 "
   style="fill:none"
   id="_x3C_Slice_x3E_" />
<g
   transform="matrix(0.03698839,0,0,0.03698839,4.4617112,16.199328)"
   id="layer1"><path
     d="m 272.70141,238.71731 c -66.24,0 -119.99995,53.75999 -119.99995,120 0,134.75551 135.93315,170.0873 228.56245,303.30804 87.57424,-132.40336 228.5625,-172.8546 228.5625,-303.30804 0,-66.24 -53.7599,-120.00001 -120,-120 -48.0479,0 -89.4016,28.37043 -108.5625,69.1875 -19.1608,-40.81708 -60.5145,-69.18751 -108.5625,-69.1875 z"
     id="path7"
     style="fill:#e60000;fill-opacity:1;stroke:#000000;stroke-width:18.70000076;stroke-miterlimit:4;stroke-opacity:1" /><path
     d="m 274.28571,257.16518 c -57.95967,0 -105,47.04032 -105,105 0,117.9104 118.91857,148.83876 199.96875,265.40625 6.55993,-9.91795 -139.96875,-145.52691 -139.96875,-245.40625 0,-57.95968 47.04033,-105 105,-105 0.50453,0 0.99718,0.0554 1.5,0.0625 -17.27564,-12.58339 -38.49443,-20.06251 -61.5,-20.0625 z"
     id="path220"
     style="fill:#e6e6e6;fill-opacity:0.64556963;stroke:none" /></g><g
   transform="matrix(0.2849882,0,0,0.2849882,22.291742,25.312311)"
   id="g2917"><path
     d="M 32.677965,16 A 14.644068,14.644068 0 1 1 3.3898296,16 14.644068,14.644068 0 1 1 32.677965,16 z"
     transform="matrix(1.8091161,0.80547038,-0.80547038,1.8091161,12.66234,-11.071855)"
     id="path3645"
     style="opacity:0.5;fill:#000000;fill-opacity:1;stroke:none;filter:url(#filter3651)" /><path
     d="M 32.677965,16 A 14.644068,14.644068 0 1 1 3.3898296,16 14.644068,14.644068 0 1 1 32.677965,16 z"
     transform="matrix(1.8091161,0.80547038,-0.80547038,1.8091161,11.331387,-12.666304)"
     id="path3606"
     style="fill:url(#linearGradient2952);fill-opacity:1;stroke:url(#linearGradient2954);stroke-width:0.75745177;stroke-miterlimit:4;stroke-dasharray:none" /><path
     d="M 32.677965,16 A 14.644068,14.644068 0 1 1 3.3898296,16 14.644068,14.644068 0 1 1 32.677965,16 z"
     transform="matrix(1.6364995,0.72861651,-0.74992069,1.6843494,13.555542,-9.2840635)"
     id="path2818"
     style="fill:url(#linearGradient2956);fill-opacity:1;stroke:none" /><path
     d="m 26.846089,24.4979 a 2.0613961,6.2321277 0 1 1 -4.122792,0 2.0613961,6.2321277 0 1 1 4.122792,0 z"
     transform="matrix(0.99712875,0.44395032,-0.40790308,0.91616532,13.168793,-12.236836)"
     id="path3628"
     style="fill:#815f0d;fill-opacity:1;stroke:none" /><path
     d="m 26.846089,24.4979 a 2.0613961,6.2321277 0 1 1 -4.122792,0 2.0613961,6.2321277 0 1 1 4.122792,0 z"
     transform="matrix(0.99712875,0.44395032,-0.40790308,0.91616532,25.606534,-6.6991976)"
     id="path3632"
     style="fill:#815f0d;fill-opacity:1;stroke:none" /><path
     d="m 13.040172,26.506854 c -0.228394,-0.01297 -0.417669,0.1006 -0.536365,0.205891 -0.118697,0.105291 -0.189852,0.219772 -0.250881,0.332997 -0.11683,0.216773 -0.174901,0.440186 -0.193987,0.666194 -0.001,0.0092 -0.01167,0.01933 -0.01271,0.02855 -0.916308,7.875851 3.5626,16.534799 11.460286,20.051075 7.897687,3.516277 17.329513,1.050787 22.569282,-4.900135 0.0061,-0.0069 0.0066,-0.02156 0.01271,-0.02855 0.155186,-0.165412 0.282359,-0.358059 0.365277,-0.589931 0.04331,-0.121116 0.08077,-0.250597 0.07959,-0.40926 -0.0012,-0.158662 -0.04343,-0.375316 -0.205892,-0.536364 -0.183999,-0.182399 -0.453165,-0.247431 -0.682031,-0.235246 -0.228865,0.01218 -0.451723,0.09776 -0.745786,0.215273 l -0.06981,0.0031 -0.01271,0.02855 C 39.707048,44.651418 32.103806,45.73565 25.692725,42.881252 19.281644,40.026855 14.999823,33.651053 14.042086,27.637083 l 0.01271,-0.02855 -0.04439,-0.05397 c -0.109437,-0.297164 -0.194961,-0.520041 -0.339049,-0.698272 -0.144088,-0.178231 -0.372522,-0.33475 -0.63119,-0.349439 z"
     id="path3634"
     style="font-size:medium;font-style:normal;font-variant:normal;font-weight:normal;font-stretch:normal;text-indent:0;text-align:start;text-decoration:none;line-height:normal;letter-spacing:normal;word-spacing:normal;text-transform:none;direction:ltr;block-progression:tb;writing-mode:lr-tb;text-anchor:start;color:#000000;fill:#815f0d;fill-opacity:1;fill-rule:nonzero;stroke:none;stroke-width:1;marker:none;visibility:visible;display:inline;overflow:visible;enable-background:accumulate;font-family:Andale Mono;-inkscape-font-specification:Andale Mono" /></g></svg>