<?xml version="1.0" encoding="UTF-8" standalone="no"?>
<!-- Created with Inkscape (http://www.inkscape.org/) -->
<svg
   xmlns:a="http://ns.adobe.com/AdobeSVGViewerExtensions/3.0/"
   xmlns:svg="http://www.w3.org/2000/svg"
   xmlns="http://www.w3.org/2000/svg"
   version="1.0"
   width="237.36154"
   height="244.5466"
   id="svg2"
   style="display:inline">
  <defs
     id="defs11">
    <linearGradient
       x1="24.9478"
       y1="49.256802"
       x2="24.9478"
       y2="21.9475"
       id="XMLID_7_"
       gradientUnits="userSpaceOnUse"
       gradientTransform="matrix(10.259259,0,0,10.259259,225.36589,40.05573)">
      <stop
         id="stop557"
         style="stop-color:#ffffff;stop-opacity:1"
         offset="0.0056" />
      <stop
         id="stop558"
         style="stop-color:#f8f8fa;stop-opacity:1"
         offset="0.045" />
      <stop
         id="stop559"
         style="stop-color:#e4e4ec;stop-opacity:1"
         offset="0.1027" />
      <stop
         id="stop560"
         style="stop-color:#c4c4d4;stop-opacity:1"
         offset="0.17129999" />
      <stop
         id="stop561"
         style="stop-color:#bdbdcf;stop-opacity:1"
         offset="0.18539999" />
      <stop
         id="stop562"
         style="stop-color:#bebed0;stop-opacity:1"
         offset="0.18960001" />
      <stop
         id="stop563"
         style="stop-color:#cacad8;stop-opacity:1"
         offset="0.27509999" />
      <stop
         id="stop564"
         style="stop-color:#cecedb;stop-opacity:1"
         offset="0.35949999" />
      <stop
         id="stop565"
         style="stop-color:#e9e9ef;stop-opacity:1"
         offset="0.78649998" />
      <a:midPointStop
         id="midPointStop566"
         style="stop-color:#FFFFFF"
         offset="0.0056" />
      <a:midPointStop
         id="midPointStop567"
         style="stop-color:#FFFFFF"
         offset="0.625" />
      <a:midPointStop
         id="midPointStop568"
         style="stop-color:#BDBDCF"
         offset="0.1854" />
      <a:midPointStop
         id="midPointStop569"
         style="stop-color:#BDBDCF"
         offset="0.2954" />
      <a:midPointStop
         id="midPointStop570"
         style="stop-color:#CECEDB"
         offset="0.3595" />
      <a:midPointStop
         id="midPointStop571"
         style="stop-color:#CECEDB"
         offset="0.5" />
      <a:midPointStop
         id="midPointStop572"
         style="stop-color:#E9E9EF"
         offset="0.7865" />
    </linearGradient>
    <linearGradient
       x1="24.9473"
       y1="21.0483"
       x2="24.9473"
       y2="23.099899"
       id="XMLID_8_"
       gradientUnits="userSpaceOnUse"
       gradientTransform="matrix(10.259259,0,0,10.259259,225.36589,40.05573)">
      <stop
         id="stop576"
         style="stop-color:#616161;stop-opacity:1"
         offset="0" />
      <stop
         id="stop577"
         style="stop-color:#88888a;stop-opacity:1"
         offset="0.1569" />
      <stop
         id="stop578"
         style="stop-color:#ababae;stop-opacity:1"
         offset="0.32600001" />
      <stop
         id="stop579"
         style="stop-color:#c6c6ca;stop-opacity:1"
         offset="0.49630001" />
      <stop
         id="stop580"
         style="stop-color:#d9d9df;stop-opacity:1"
         offset="0.66570002" />
      <stop
         id="stop581"
         style="stop-color:#e5e5eb;stop-opacity:1"
         offset="0.83399999" />
      <stop
         id="stop582"
         style="stop-color:#e9e9ef;stop-opacity:1"
         offset="1" />
      <a:midPointStop
         id="midPointStop583"
         style="stop-color:#616161"
         offset="0" />
      <a:midPointStop
         id="midPointStop584"
         style="stop-color:#616161"
         offset="0.2954" />
      <a:midPointStop
         id="midPointStop585"
         style="stop-color:#E9E9EF"
         offset="1" />
    </linearGradient>
    <linearGradient
       x1="24.1597"
       y1="18.867701"
       x2="24.1597"
       y2="20.534201"
       id="XMLID_9_"
       gradientUnits="userSpaceOnUse"
       gradientTransform="matrix(5.5901073,0,0,5.6932796,-15.484599,-14.292656)">
      <stop
         id="stop589"
         style="stop-color:#ffffff;stop-opacity:1"
         offset="0" />
      <stop
         id="stop590"
         style="stop-color:#e9e9ef;stop-opacity:1"
         offset="1" />
      <a:midPointStop
         id="midPointStop591"
         style="stop-color:#FFFFFF"
         offset="0" />
      <a:midPointStop
         id="midPointStop592"
         style="stop-color:#FFFFFF"
         offset="0.5" />
      <a:midPointStop
         id="midPointStop593"
         style="stop-color:#E9E9EF"
         offset="1" />
    </linearGradient>
    <linearGradient
       x1="311.22269"
       y1="17.458"
       x2="311.22269"
       y2="23.226101"
       id="XMLID_10_"
       gradientUnits="userSpaceOnUse"
       gradientTransform="matrix(5.5901073,0,1.4975897,5.6932796,-1651.7386,-14.292656)">
      <stop
         id="stop596"
         style="stop-color:#cecedb;stop-opacity:1"
         offset="0" />
      <stop
         id="stop597"
         style="stop-color:#828282;stop-opacity:1"
         offset="0.29769999" />
      <stop
         id="stop598"
         style="stop-color:#000000;stop-opacity:1"
         offset="1" />
      <a:midPointStop
         id="midPointStop599"
         style="stop-color:#CECEDB"
         offset="0" />
      <a:midPointStop
         id="midPointStop600"
         style="stop-color:#CECEDB"
         offset="0.5" />
      <a:midPointStop
         id="midPointStop601"
         style="stop-color:#828282"
         offset="0.2977" />
      <a:midPointStop
         id="midPointStop602"
         style="stop-color:#828282"
         offset="0.5" />
      <a:midPointStop
         id="midPointStop603"
         style="stop-color:#000000"
         offset="1" />
    </linearGradient>
    <linearGradient
       x1="22.6689"
       y1="9.3192997"
       x2="23.184099"
       y2="11.2419"
       id="XMLID_11_"
       gradientUnits="userSpaceOnUse">
      <stop
         id="stop607"
         style="stop-color:#ffffff;stop-opacity:1"
         offset="0" />
      <stop
         id="stop608"
         style="stop-color:#cecedb;stop-opacity:1"
         offset="1" />
      <a:midPointStop
         id="midPointStop609"
         style="stop-color:#FFFFFF"
         offset="0" />
      <a:midPointStop
         id="midPointStop610"
         style="stop-color:#FFFFFF"
         offset="0.5" />
      <a:midPointStop
         id="midPointStop611"
         style="stop-color:#CECEDB"
         offset="1" />
    </linearGradient>
    <linearGradient
       x1="22.366699"
       y1="7.8495998"
       x2="24.2355"
       y2="14.8243"
       id="XMLID_12_"
       gradientUnits="userSpaceOnUse"
       gradientTransform="matrix(5.5901073,0,0,5.6932796,-15.484599,-14.292656)">
      <stop
         id="stop614"
         style="stop-color:#cecedb;stop-opacity:1"
         offset="0" />
      <stop
         id="stop615"
         style="stop-color:#cbcbd7;stop-opacity:1"
         offset="0.0054" />
      <stop
         id="stop616"
         style="stop-color:#a5a5ad;stop-opacity:1"
         offset="0.0705" />
      <stop
         id="stop617"
         style="stop-color:#87878c;stop-opacity:1"
         offset="0.1338" />
      <stop
         id="stop618"
         style="stop-color:#727274;stop-opacity:1"
         offset="0.19410001" />
      <stop
         id="stop619"
         style="stop-color:#656566;stop-opacity:1"
         offset="0.2502" />
      <stop
         id="stop620"
         style="stop-color:#616161;stop-opacity:1"
         offset="0.29769999" />
      <stop
         id="stop621"
         style="stop-color:#000000;stop-opacity:1"
         offset="1" />
      <a:midPointStop
         id="midPointStop622"
         style="stop-color:#CECEDB"
         offset="0" />
      <a:midPointStop
         id="midPointStop623"
         style="stop-color:#CECEDB"
         offset="0.3269" />
      <a:midPointStop
         id="midPointStop624"
         style="stop-color:#616161"
         offset="0.2977" />
      <a:midPointStop
         id="midPointStop625"
         style="stop-color:#616161"
         offset="0.5" />
      <a:midPointStop
         id="midPointStop626"
         style="stop-color:#000000"
         offset="1" />
    </linearGradient>
  </defs>
  <g
     id="layer2"
     style="display:inline">
    <path
       d="M 228.93167,81.069772 L 227.5006,81.069772 L 39.443795,81.069772 L 222.43596,31.134022 C 223.4869,30.843672 224.37013,30.154782 224.91238,29.192612 C 225.45461,28.230452 225.59995,27.114562 225.31486,26.038532 L 219.27754,3.0832321 C 219.00364,2.0242821 218.30486,1.1019721 217.37131,0.55541714 C 216.4266,0.0031691412 215.33092,-0.14485586 214.2744,0.14550114 L 212.88806,0.52695014 C 212.88806,0.52695014 213.12284,0.64651014 213.17874,0.67497614 C 211.66381,0.86854714 209.02528,1.5802071 203.8768,2.9864521 L 3.024245,57.795652 C 1.973305,58.080312 1.095655,58.769202 0.547826,59.725672 C 0.18447,60.374702 0,61.086362 0,61.803722 C 0,62.162392 0.044718,62.532452 0.139752,62.885442 L 6.137935,85.669942 L 6.137935,108.97823 C 6.137935,111.26693 7.971495,113.13432 10.218715,113.13432 L 18.738035,113.13432 L 18.738035,227.86168 C 18.738035,234.72006 24.128686,240.12293 32.422625,240.12293 L 215.53776,240.12293 C 223.09,240.12293 229.22235,233.78061 229.22235,225.98082 L 229.22235,113.10586 C 231.3354,112.95214 233.01803,111.17584 233.01803,108.97823 L 233.01803,85.220182 C 233.01244,82.931482 231.17888,81.069772 228.93167,81.069772 z"
       id="path553"
       style="display:inline" />
  </g>
  <path
     d="M 233.27517,85.493452 L 231.8441,85.493452 L 43.792895,85.493452 L 226.78506,35.557702 C 227.83601,35.267342 228.71924,34.584152 229.26148,33.616292 C 229.80371,32.654132 229.94907,31.538242 229.66396,30.462212 L 223.62664,7.5069121 C 223.35832,6.4536521 222.65396,5.5256521 221.72043,4.9790921 C 220.77569,4.4268521 219.67445,4.2788221 218.6235,4.5691821 L 217.24833,4.9506321 C 217.24833,4.9506321 217.47754,5.0701921 217.53344,5.1043521 C 216.02411,5.2979221 213.37998,6.0095821 208.2315,7.4158221 L 7.367755,62.219322 C 6.316815,62.503992 5.439175,63.192872 4.891345,64.149352 C 4.527985,64.798382 4.337925,65.504352 4.337925,66.227392 C 4.337925,66.591762 4.382645,66.956142 4.477675,67.309122 L 10.475855,90.093622 L 10.475855,113.4076 C 10.475855,115.6963 12.303825,117.558 14.551045,117.558 L 23.070375,117.558 L 23.070375,239.7187 C 23.070375,241.80244 24.596475,243.57875 26.625685,243.84633 L 27.855505,244.00005 C 29.185945,244.16515 32.679765,244.5466 36.760545,244.5466 L 219.88128,244.5466 C 227.42792,244.5466 233.56027,238.20429 233.56027,230.4045 L 233.56027,117.53523 C 235.67334,117.38151 237.36154,115.59951 237.36154,113.4133 L 237.36154,89.649552 C 237.36154,87.360852 235.52799,85.493452 233.27517,85.493452 z"
     id="path551"
     style="opacity:0.2" />
  <path
     d="M 231.10622,83.284462 L 229.66956,83.284462 L 41.618345,83.284462 L 224.6105,33.343012 C 225.66145,33.058352 226.54468,32.369462 227.08692,31.401602 C 227.62917,30.445132 227.7745,29.323562 227.495,28.247532 L 221.45768,5.2922221 C 221.18378,4.2389721 220.4906,3.3166621 219.55146,2.7644121 C 218.60673,2.2121621 217.51108,2.0641321 216.45454,2.3544921 L 215.0682,2.7302521 C 215.0682,2.7302521 215.30298,2.8498121 215.35888,2.8782721 C 213.84396,3.0775421 211.20544,3.7835021 206.05694,5.1897421 L 5.193205,60.010332 C 4.142265,60.295002 3.264615,60.983882 2.716795,61.940362 C 2.353435,62.589392 2.168955,63.301052 2.168955,64.018402 C 2.168955,64.377082 2.213675,64.741452 2.308715,65.100132 L 8.306895,87.890322 L 8.306895,111.19292 C 8.306895,113.48731 10.140455,115.34901 12.387675,115.34901 L 20.907005,115.34901 L 20.907005,237.50971 C 20.907005,239.59345 22.433095,241.36406 24.462305,241.63734 L 25.686535,241.79106 C 27.016985,241.95616 30.510805,242.33761 34.591585,242.33761 L 217.70672,242.33761 C 225.25896,242.33761 231.39132,235.9896 231.39132,228.1955 L 231.39132,115.32624 C 233.50438,115.17252 235.18698,113.39052 235.18698,111.19861 L 235.18698,87.440552 C 235.18698,85.146162 233.35902,83.284462 231.10622,83.284462 z"
     id="path552"
     style="opacity:0.2" />
  <path
     d="M 227.5006,83.284462 L 10.213125,83.284462 C 9.162185,83.284462 8.306895,84.155532 8.306895,85.225872 L 8.306895,108.98393 C 8.306895,110.05426 9.162185,110.92533 10.213125,110.92533 L 228.92607,110.92533 C 229.9826,110.92533 230.83788,110.05426 230.83788,108.98393 L 230.83788,85.225872 C 230.83788,84.155532 229.9882,83.284462 228.92607,83.284462 L 227.5006,83.284462 z"
     id="path587" />
  <rect
     width="215.8508"
     height="20.843096"
     x="11.649789"
     y="86.677658"
     id="rect594"
     style="fill:url(#XMLID_9_)" />
  <path
     d="M 27.905815,107.52075 L 48.376785,107.52075 L 39.281685,86.677652 L 18.816295,86.677652 L 27.905815,107.52075 M 123.01031,86.677652 L 102.55052,86.677652 L 111.64004,107.52075 L 132.10541,107.52075 L 123.01031,86.677652 M 81.145995,86.677652 L 60.675015,86.677652 L 69.770125,107.52075 L 90.241105,107.52075 L 81.145995,86.677652 M 206.7557,86.677652 L 186.27914,86.677652 L 195.37984,107.52075 L 215.84522,107.52075 L 206.7557,86.677652 M 164.88581,86.677652 L 144.41482,86.677652 L 153.50994,107.52075 L 173.99208,107.52075 L 164.88581,86.677652 z"
     id="path604"
     style="fill:url(#XMLID_10_)" />
  <path
     d="M 214.84459,2.2804821 L 213.45824,2.6619321 C 213.46384,2.6619321 213.46384,2.6619321 213.46384,2.6619321 L 3.583255,59.936322 C 3.091325,60.067262 2.677655,60.397482 2.420515,60.841552 C 2.163365,61.285632 2.096285,61.815102 2.230455,62.310422 L 8.273355,85.271412 C 8.547265,86.307592 9.592625,86.922472 10.610025,86.643492 L 221.87694,28.993352 C 222.89434,28.714372 223.49807,27.649732 223.21858,26.613562 L 217.18685,3.6582521 C 217.05827,3.1629421 216.73405,2.7359421 216.29802,2.4740521 C 215.8564,2.2178521 215.33652,2.1495321 214.84459,2.2804821 z"
     id="path605" />
  <polygon
     points="4.761,17.085 42.06,7.091 41.111,3.555 3.814,13.548 4.761,17.085 "
     transform="matrix(5.5901073,0,0,5.6932796,-15.484599,-14.292656)"
     id="polygon612"
     style="fill:url(#XMLID_11_)" />
  <path
     d="M 26.832515,78.695682 L 46.610315,73.304142 L 37.828255,54.112102 L 18.056045,59.509322 L 26.832515,78.695682 M 118.70034,32.044942 L 98.928125,37.442182 L 107.71019,56.628522 L 127.48799,51.231302 L 118.70034,32.044942 M 78.261495,43.078522 L 58.489285,48.475752 L 67.276935,67.662102 L 87.043555,62.259182 L 78.261495,43.078522 M 199.5836,9.9721021 L 179.82256,15.363642 L 188.60462,34.549992 L 208.37684,29.158452 L 199.5836,9.9721021 M 159.14476,21.011372 L 139.36697,26.397212 L 148.15462,45.589262 L 167.92683,40.192032 L 159.14476,21.011372 z"
     id="path627"
     style="fill:url(#XMLID_12_)" />
  <g
     id="layer1"
     style="display:inline">
    <g
       id="g3327"
       style="display:inline">
      <g
         transform="matrix(0.1336636,0,0,0.1333532,24.242449,113.568)"
         id="g2502"
         style="opacity:1">
        <rect
           width="1484.022"
           height="900.0293"
           x="2.340258e-14"
           y="-0.029292507"
           id="rect4117"
           style="fill:#ffffff" />
        <rect
           width="1484.0509"
           height="300"
           x="2.2037927e-14"
           y="-1.4321877e-14"
           id="rect2172"
           style="fill:#ff9932;fill-opacity:1" />
        <rect
           width="1484.0509"
           height="300"
           x="3.7610492e-14"
           y="600"
           id="rect3146"
           style="fill:#128807;fill-opacity:1" />
        <g
           transform="translate(66.976103,0)"
           id="g3280">
          <path
             d="M 675,315 C 600.44281,315 540,375.44281 540,450 C 540,524.55719 600.44281,585 675,585 C 749.55719,585 810,524.55719 810,450 C 809.99374,375.44281 749.55719,315 675,315 z M 674.875,328.15625 L 671.4375,395.9375 L 675.0625,434.625 L 678.65625,395.9375 L 675.21875,328.15625 C 678.68097,328.16233 682.11122,328.33579 685.5,328.625 C 685.47396,328.84352 685.4375,329.05576 685.4375,329.28125 C 685.4375,332.36179 687.95069,334.875 691.03125,334.875 C 693.84412,334.875 696.14774,332.77004 696.53125,330.0625 C 699.87414,330.65876 703.16372,331.38701 706.40625,332.25 L 685.53125,396.84375 L 679,435.1875 L 692.5,398.75 L 706.6875,332.34375 C 709.9972,333.2333 713.27675,334.25121 716.46875,335.40625 C 716.21749,336.0412 716.0625,336.74477 716.0625,337.46875 C 716.0625,340.54929 718.54446,343.03124 721.625,343.03125 C 723.91134,343.03125 725.88792,341.65702 726.75,339.6875 C 729.83617,341.13803 732.87446,342.71095 735.8125,344.40625 L 698.9375,401.375 L 682.6875,436.71875 L 705.1875,405 L 736.09375,344.5625 C 739.02359,346.2634 741.85653,348.0997 744.625,350.03125 C 743.88645,350.97842 743.43749,352.14426 743.4375,353.4375 C 743.4375,356.52149 745.94727,359.03125 749.03125,359.03125 C 750.84674,359.03125 752.44805,358.1552 753.46875,356.8125 C 756.0868,359.01927 758.60866,361.33354 761.03125,363.75 L 710.6875,409.21875 L 685.84375,439.15625 L 715.78125,414.34375 L 761.25,363.96875 C 763.65603,366.38088 765.95807,368.89406 768.15625,371.5 C 766.88518,372.52318 766.06252,374.08622 766.0625,375.84375 C 766.0625,378.92429 768.57574,381.43751 771.65625,381.4375 C 772.89211,381.4375 774.01243,381.02458 774.9375,380.34375 C 776.89155,383.14235 778.75054,386.00519 780.46875,388.96875 L 720.03125,419.875 L 688.3125,442.34375 L 723.625,426.125 L 780.625,389.21875 C 782.40704,392.30963 784.02043,395.52694 785.53125,398.78125 C 783.52623,399.62977 782.12499,401.59326 782.125,403.90625 C 782.125,406.99024 784.63477,409.5 787.71875,409.5 C 788.4541,409.5 789.13802,409.3523 789.78125,409.09375 C 790.85904,412.11804 791.81607,415.21462 792.65625,418.34375 L 726.25,432.53125 L 689.8125,446.03125 L 728.125,439.5 L 792.75,418.625 C 793.6179,421.88926 794.37118,425.19663 794.96875,428.5625 C 792.26337,428.95101 790.18751,431.28141 790.1875,434.09375 C 790.1875,437.17774 792.69724,439.68752 795.78125,439.6875 C 795.98442,439.6875 796.17742,439.67743 796.375,439.65625 C 796.65822,443.02515 796.8403,446.4337 796.84375,449.875 L 729.0625,446.40625 L 690.34375,450.03125 L 729.03125,453.625 L 796.84375,450.1875 C 796.83856,453.63891 796.66164,457.059 796.375,460.4375 C 796.1775,460.41631 795.98435,460.40625 795.78125,460.40625 C 792.70071,460.40625 790.18748,462.88822 790.1875,465.96875 C 790.1875,468.76695 792.25058,471.09837 794.9375,471.5 C 794.34026,474.85305 793.6156,478.15412 792.75,481.40625 L 769.6875,473.9375 L 728.15625,460.5 L 689.84375,453.96875 L 690,454.03125 L 689.84375,454 L 726.28125,467.5 L 792.65625,481.6875 C 791.76967,484.98594 790.74408,488.22468 789.59375,491.40625 C 789.31476,491.29771 789.01736,491.21914 788.71875,491.15625 C 788.70893,491.15424 788.69733,491.15821 788.6875,491.15625 C 788.32391,491.08179 787.948,491.03125 787.5625,491.03125 C 784.47851,491.03125 781.96874,493.541 781.96875,496.625 C 781.96875,497.396 782.12341,498.11291 782.40625,498.78125 C 782.41117,498.7931 782.4325,498.80069 782.4375,498.8125 C 782.79157,499.63232 783.32044,500.3766 784,500.9375 C 784.00571,500.94225 784.02553,500.93278 784.03125,500.9375 C 784.16321,501.04542 784.29591,501.15432 784.4375,501.25 C 784.4445,501.25478 784.46173,501.24526 784.46875,501.25 C 784.61056,501.34486 784.75569,501.44943 784.90625,501.53125 C 784.91398,501.5355 784.92975,501.52704 784.9375,501.53125 C 785.06068,501.59743 785.18401,501.69301 785.3125,501.75 C 783.86197,504.83599 782.28905,507.84336 780.59375,510.78125 L 723.65625,473.9375 L 723.625,473.9375 L 688.3125,457.6875 L 688.4375,457.78125 L 706.875,470.84375 L 720,480.1875 L 720.03125,480.1875 L 780.4375,511.0625 C 778.69886,514.0572 776.82324,516.98653 774.84375,519.8125 C 773.92496,519.14724 772.81399,518.75 771.59375,518.75 C 768.51321,518.75 765.99998,521.26321 766,524.34375 C 766,526.07655 766.7908,527.60115 768.03125,528.625 C 765.87224,531.1769 763.64,533.66576 761.28125,536.03125 L 715.78125,485.6875 L 685.9375,460.9375 L 710.65625,490.78125 L 761.03125,536.28125 C 758.68181,538.62383 756.22088,540.85438 753.6875,543 C 752.72559,542.21333 751.49489,541.71874 750.15625,541.71875 C 747.07571,541.71875 744.59378,544.23194 744.59375,547.3125 C 744.59375,548.15207 744.7612,548.94176 745.09375,549.65625 C 742.17424,551.71314 739.16306,553.63844 736.0625,555.4375 L 705.15625,495.03125 L 682.6875,463.3125 L 682.65625,463.3125 L 698.90625,498.625 L 735.75,555.625 C 732.85106,557.29549 729.85555,558.84888 726.8125,560.28125 C 725.94081,558.33457 723.98851,556.96875 721.71875,556.96875 C 718.63821,556.96875 716.15625,559.48195 716.15625,562.5625 C 716.15625,563.27197 716.28948,563.93805 716.53125,564.5625 C 713.31859,565.72706 710.01949,566.76072 706.6875,567.65625 L 692.5,501.28125 L 679,464.84375 L 678.96875,464.8125 L 685.53125,503.125 L 706.40625,567.75 C 703.13259,568.62126 699.8134,569.36941 696.4375,569.96875 C 696.04179,567.27507 693.70928,565.18748 690.90625,565.1875 C 687.82571,565.1875 685.34377,567.70069 685.34375,570.78125 C 685.34375,570.98435 685.35382,571.1775 685.375,571.375 C 682.00645,571.65902 678.59723,571.83944 675.15625,571.84375 L 678.625,504.0625 L 675,465.375 L 671.375,504.0625 L 674.84375,571.84375 C 671.35012,571.83937 667.88763,571.66763 664.46875,571.375 C 664.4899,571.17765 664.5,570.98419 664.5,570.78125 C 664.5,567.70071 661.98677,565.18748 658.90625,565.1875 C 656.10805,565.1875 653.77663,567.25058 653.375,569.9375 C 650.07317,569.34598 646.82884,568.60182 643.625,567.75 L 664.5,503.15625 L 671.03125,464.84375 L 657.53125,501.25 L 643.3125,567.65625 C 640.01227,566.76926 636.74572,565.74473 633.5625,564.59375 C 633.81376,563.95881 633.96875,563.28648 633.96875,562.5625 C 633.96875,559.48196 631.4868,556.96875 628.40625,556.96875 C 626.12116,556.96875 624.14407,558.3447 623.28125,560.3125 C 620.19431,558.86252 617.15756,557.28859 614.21875,555.59375 L 651.09375,498.625 L 667.3125,463.3125 L 644.84375,495 L 613.9375,555.4375 C 610.94704,553.70233 608.04104,551.85028 605.21875,549.875 C 605.90034,548.94889 606.31249,547.79974 606.3125,546.5625 C 606.3125,543.47851 603.80276,540.96877 600.71875,540.96875 C 598.95926,540.96875 597.39933,541.79 596.375,543.0625 C 593.81746,540.8996 591.33911,538.64469 588.96875,536.28125 L 639.34375,490.78125 L 664.15625,460.875 L 664.15625,460.84375 L 634.25,485.6875 L 588.75,536.03125 C 586.34397,533.6192 584.04193,531.10583 581.84375,528.5 C 583.11483,527.47682 583.9375,525.91376 583.9375,524.15625 C 583.9375,521.07571 581.45554,518.59373 578.375,518.59375 C 577.13538,518.59375 575.98906,519.0029 575.0625,519.6875 C 573.11627,516.90146 571.27498,514.01213 569.5625,511.0625 L 630,480.15625 L 661.6875,457.6875 L 626.375,473.90625 L 569.40625,510.78125 C 567.74092,507.8953 566.2105,504.93522 564.78125,501.90625 C 566.91075,501.11982 568.4375,499.08912 568.4375,496.6875 C 568.4375,493.60696 565.92429,491.09374 562.84375,491.09375 C 561.99179,491.09375 561.19132,491.28315 560.46875,491.625 C 559.28684,488.37515 558.25015,485.05965 557.34375,481.6875 L 623.71875,467.46875 L 660.1875,453.96875 L 621.875,460.5 L 557.25,481.40625 C 556.37873,478.13282 555.6306,474.81314 555.03125,471.4375 C 557.7336,471.04942 559.8125,468.71542 559.8125,465.90625 C 559.8125,462.82571 557.29929,460.34374 554.21875,460.34375 C 554.01565,460.34375 553.8225,460.35382 553.625,460.375 C 553.34093,457.00648 553.16056,453.59717 553.15625,450.15625 L 620.9375,453.59375 L 659.625,450 L 620.9375,446.375 L 553.15625,449.84375 C 553.16057,446.40251 553.34093,442.9938 553.625,439.625 C 553.93147,439.67715 554.24125,439.71875 554.5625,439.71875 C 557.64649,439.71875 560.15626,437.20898 560.15625,434.125 C 560.15625,431.19329 557.90395,428.79302 555.03125,428.5625 C 555.62882,425.19663 556.3821,421.88926 557.25,418.625 L 621.875,439.5 L 660.1875,446.03125 L 623.75,432.53125 L 557.34375,418.3125 C 558.23075,415.01227 559.25526,411.74572 560.40625,408.5625 C 561.04119,408.81376 561.74478,408.96875 562.46875,408.96875 C 565.54929,408.96875 568.03127,406.48677 568.03125,403.40625 C 568.03125,401.11991 566.65703,399.14333 564.6875,398.28125 C 566.13751,395.19431 567.71137,392.15756 569.40625,389.21875 L 626.375,426.09375 L 661.71875,442.3125 L 630,419.84375 L 569.5625,388.9375 C 571.28613,385.96699 573.13314,383.08587 575.09375,380.28125 C 576.02944,380.98979 577.20543,381.40626 578.46875,381.40625 C 581.54929,381.40625 584.03122,378.92428 584.03125,375.84375 C 584.03125,374.05501 583.18508,372.45902 581.875,371.4375 C 584.05521,368.85578 586.33436,366.36004 588.71875,363.96875 L 634.21875,414.34375 L 664.15625,439.15625 L 639.34375,409.25 L 588.96875,363.75 C 591.38088,361.34397 593.89406,359.04193 596.5,356.84375 C 597.52318,358.11483 599.08623,358.9375 600.84375,358.9375 C 603.92429,358.9375 606.40624,356.45554 606.40625,353.375 C 606.40625,352.13914 606.02458,350.98757 605.34375,350.0625 C 608.13069,348.1166 610.98694,346.27456 613.9375,344.5625 L 644.84375,405 L 667.3125,436.6875 L 651.125,401.375 L 614.21875,344.375 C 617.10502,342.71093 620.09577,341.17802 623.125,339.75 C 623.9402,341.82225 625.95199,343.28125 628.3125,343.28125 C 631.39304,343.28125 633.90626,340.79929 633.90625,337.71875 C 633.90625,336.91331 633.74502,336.12928 633.4375,335.4375 C 636.66831,334.26547 639.99223,333.24364 643.34375,332.34375 L 657.5625,398.71875 L 671.0625,435.1875 L 664.53125,396.875 L 643.65625,332.25 C 646.92093,331.38286 650.22748,330.628 653.59375,330.03125 C 653.98227,332.73663 656.31269,334.8125 659.125,334.8125 C 662.20899,334.8125 664.71873,332.30274 664.71875,329.21875 C 664.71875,329.00516 664.71087,328.80112 664.6875,328.59375 C 668.0455,328.31238 671.4451,328.15969 674.875,328.15625 z"
             id="polygon2506"
             style="fill:#000080;stroke:none;stroke-width:0.01" />
          <circle
             cx="21.599001"
             cy="21.587999"
             r="3.2320001"
             transform="matrix(6.25637,0,0,6.25637,539.969,314.969)"
             id="circle229"
             style="fill:#ffffff;stroke:none" />
          <circle
             cx="21.593"
             cy="21.598"
             r="2.5039999"
             transform="matrix(6.25637,0,0,6.25637,539.969,314.969)"
             id="circle227"
             style="fill:#000080;stroke:none;stroke-width:0.01" />
        </g>
      </g>
    </g>
  </g>
  <path
     d="M 213.27809,235.70233 C 220.84583,235.70233 224.46906,232.16086 224.46906,224.21457 L 224.68974,111.49109 L 22.163918,111.49109 L 22.318414,224.2966 C 22.318414,232.32273 26.038902,235.66985 32.500022,235.66985 L 213.27809,235.70233 z"
     id="path2497"
     style="fill:none;fill-opacity:1;stroke:#000000;stroke-width:4.14770842;stroke-miterlimit:4;stroke-dasharray:none;stroke-opacity:1" />
</svg>
