<svg xmlns:dc="http://purl.org/dc/elements/1.1/" xmlns:cc="http://creativecommons.org/ns#" xmlns:rdf="http://www.w3.org/1999/02/22-rdf-syntax-ns#" xmlns:svg="http://www.w3.org/2000/svg" xmlns="http://www.w3.org/2000/svg" xmlns:xlink="http://www.w3.org/1999/xlink" xmlns:sodipodi="http://sodipodi.sourceforge.net/DTD/sodipodi-0.dtd" xmlns:inkscape="http://www.inkscape.org/namespaces/inkscape" version="1.1" width="237.4" height="244.5" id="svg2" inkscape:version="0.48.4 r9939">
  <metadata id="metadata47">
    <rdf:RDF>
      <cc:Work rdf:about="">
        <dc:format>image/svg+xml</dc:format>
        <dc:type rdf:resource="http://purl.org/dc/dcmitype/StillImage"/>
      </cc:Work>
    </rdf:RDF>
  </metadata>
  <defs id="defs3043">
    <linearGradient x1="22.4" y1="7.8" x2="24.2" y2="14.8" id="XMLID_12_" gradientUnits="userSpaceOnUse" gradientTransform="matrix(5.5901073,0,0,5.6932796,-777.02251,395.79623)">
      <stop id="stop614" style="stop-color:#cecedb;stop-opacity:1" offset="0"/>
      <stop id="stop615" style="stop-color:#cbcbd7;stop-opacity:1" offset="0.0054"/>
      <stop id="stop616" style="stop-color:#a5a5ad;stop-opacity:1" offset="0.0705"/>
      <stop id="stop617" style="stop-color:#87878c;stop-opacity:1" offset="0.1338"/>
      <stop id="stop618" style="stop-color:#727274;stop-opacity:1" offset="0.19410001"/>
      <stop id="stop619" style="stop-color:#656566;stop-opacity:1" offset="0.2502"/>
      <stop id="stop620" style="stop-color:#616161;stop-opacity:1" offset="0.29769999"/>
      <stop id="stop621" style="stop-color:#000000;stop-opacity:1" offset="1"/>
    </linearGradient>
    <linearGradient x1="22.7" y1="9.3" x2="23.2" y2="11.2" id="XMLID_11_" gradientUnits="userSpaceOnUse">
      <stop id="stop607" style="stop-color:#ffffff;stop-opacity:1" offset="0"/>
      <stop id="stop608" style="stop-color:#cecedb;stop-opacity:1" offset="1"/>
    </linearGradient>
    <linearGradient x1="311.2" y1="17.5" x2="311.2" y2="23.2" id="XMLID_10_" gradientUnits="userSpaceOnUse" gradientTransform="matrix(5.5901073,0,1.4975897,5.6932796,-2413.2765,395.79623)">
      <stop id="stop596" style="stop-color:#cecedb;stop-opacity:1" offset="0"/>
      <stop id="stop597" style="stop-color:#828282;stop-opacity:1" offset="0.29769999"/>
      <stop id="stop598" style="stop-color:#000000;stop-opacity:1" offset="1"/>
    </linearGradient>
    <linearGradient x1="24.2" y1="18.9" x2="24.2" y2="20.5" id="XMLID_9_" gradientUnits="userSpaceOnUse" gradientTransform="matrix(5.5901073,0,0,5.6932796,-777.02251,395.79623)">
      <stop id="stop589" style="stop-color:#ffffff;stop-opacity:1" offset="0"/>
      <stop id="stop590" style="stop-color:#e9e9ef;stop-opacity:1" offset="1"/>
    </linearGradient>
    <linearGradient inkscape:collect="always" xlink:href="#XMLID_12_" id="linearGradient3036" gradientUnits="userSpaceOnUse" gradientTransform="matrix(5.5901073,0,0,5.6932796,-15.4846,-14.29265)" x1="22.4" y1="7.8" x2="24.2" y2="14.8"/>
    <linearGradient inkscape:collect="always" xlink:href="#XMLID_10_" id="linearGradient3041" gradientUnits="userSpaceOnUse" gradientTransform="matrix(5.5901073,0,1.4975897,5.6932796,-1651.7386,-14.29265)" x1="311.2" y1="17.5" x2="311.2" y2="23.2"/>
    <linearGradient inkscape:collect="always" xlink:href="#XMLID_9_" id="linearGradient3044" gradientUnits="userSpaceOnUse" gradientTransform="matrix(5.5901073,0,0,5.6932796,-15.4846,-14.29265)" x1="24.2" y1="18.9" x2="24.2" y2="20.5"/>
  </defs>
  <path d="m 228.9 81.1 -189.5 0 183 -49.9 c 1.1 -0.3 1.9 -1 2.5 -1.9 0.5 -1 0.7 -2.1 0.4 -3.2 L 219.3 3.1 c -0.3 -1.1 -1 -2 -1.9 -2.5 -0.9 -0.6 -2 -0.7 -3.1 -0.4 L 3 57.8 c -1.1 0.3 -1.9 1 -2.5 1.9 C 0.2 60.4 0 61.1 0 61.8 c 0 0.4 0 0.7 0.1 1.1 l 6 22.8 0 23.3 c 0 2.3 1.8 4.2 4.1 4.2 l 8.5 0 0 114.7 c 0 6.9 5.4 12.3 13.7 12.3 l 183.1 0 c 7.6 0 13.7 -6.3 13.7 -14.1 l 0 -112.9 c 2.1 -0.2 3.8 -1.9 3.8 -4.1 l 0 -23.8 c -0 -2.3 -1.8 -4.2 -4.1 -4.2 z" id="path553" style="display:inline" inkscape:connector-curvature="0"/>
  <path inkscape:connector-curvature="0" style="opacity:0.2;display:inline" id="path551" d="m 233.3 85.5 -189.5 0 183 -49.9 c 1.1 -0.3 1.9 -1 2.5 -1.9 0.5 -1 0.7 -2.1 0.4 -3.2 L 223.6 7.5 C 223.4 6.5 222.7 5.5 221.7 5 220.8 4.4 219.7 4.3 218.6 4.6 148.6 23.7 77.7 43 7.4 62.2 c -1.1 0.3 -1.9 1 -2.5 1.9 -0.4 0.6 -0.6 1.4 -0.6 2.1 0 0.4 0 0.7 0.1 1.1 l 6 22.8 0 23.3 c 0 2.3 1.8 4.2 4.1 4.2 l 8.5 0 0 122.2 c 0 2.1 1.5 3.9 3.6 4.1 l 1.2 0.2 c 1.3 0.2 4.8 0.5 8.9 0.5 l 183.1 0 c 7.5 0 13.7 -6.3 13.7 -14.1 l 0 -112.9 c 2.1 -0.2 3.8 -1.9 3.8 -4.1 l 0 -23.8 c 0 -2.3 -1.8 -4.2 -4.1 -4.2 z"/>
  <path inkscape:connector-curvature="0" style="opacity:0.2;display:inline" id="path552" d="m 231.1 83.3 -189.5 0 183 -49.9 c 1.1 -0.3 1.9 -1 2.5 -1.9 0.5 -1 0.7 -2.1 0.4 -3.2 L 221.5 5.3 C 221.2 4.2 220.5 3.3 219.6 2.8 218.6 2.2 217.5 2.1 216.5 2.4 L 5.2 60 C 4.1 60.3 3.3 61 2.7 61.9 2.4 62.6 2.2 63.3 2.2 64 c 0 0.4 0 0.7 0.1 1.1 l 6 22.8 0 23.3 c 0 2.3 1.8 4.2 4.1 4.2 l 8.5 0 0 122.2 c 0 2.1 1.5 3.9 3.6 4.1 l 1.2 0.2 c 1.3 0.2 4.8 0.5 8.9 0.5 l 183.1 0 c 7.6 0 13.7 -6.3 13.7 -14.1 l 0 -112.9 c 2.1 -0.2 3.8 -1.9 3.8 -4.1 l 0 -23.8 c 0 -2.3 -1.8 -4.2 -4.1 -4.2 z"/>
  <rect style="fill:url(#linearGradient3044);display:inline" id="rect594" y="86.7" x="11.6" height="20.8" width="215.9"/>
  <path inkscape:connector-curvature="0" style="fill:url(#linearGradient3041);display:inline" id="path604" d="m 27.9 107.5 20.5 0 -9.1 -20.8 -20.5 0 9.1 20.8 m 95.1 -20.8 -20.5 0 9.1 20.8 20.5 0 -9.1 -20.8 m -41.9 0 -20.5 0 9.1 20.8 20.5 0 -9.1 -20.8 m 125.6 0 -20.5 0 9.1 20.8 20.5 0 -9.1 -20.8 m -41.9 0 -20.5 0 9.1 20.8 20.5 0 -9.1 -20.8 z"/>
  <polygon style="fill:url(#XMLID_11_);display:inline" id="polygon612" transform="matrix(5.5901073,0,0,5.6932796,-15.4846,-14.29265)" points="4.8,17.1 4.8,17.1 42.1,7.1 41.1,3.6 3.8,13.5"/>
  <path inkscape:connector-curvature="0" style="fill:url(#linearGradient3036);display:inline" id="path627" d="m 26.8 78.7 19.8 -5.4 -8.8 -19.2 -19.8 5.4 8.8 19.2 m 91.9 -46.7 -19.8 5.4 8.8 19.2 19.8 -5.4 -8.8 -19.2 M 78.3 43.1 58.5 48.5 67.3 67.7 87 62.3 78.3 43.1 M 199.6 10 179.8 15.4 188.6 34.5 208.4 29.2 199.6 10 m -40.4 11 -19.8 5.4 8.8 19.2 19.8 -5.4 -8.8 -19.2 z"/>
  <rect width="198.4" height="120" x="24.2" y="113.6" id="rect4117" style="fill:#ffffff"/>
  <rect width="198.4" height="40" x="24.2" y="113.6" id="rect2172" style="fill:#ff9932;fill-opacity:1"/>
  <rect width="198.4" height="40" x="24.2" y="193.6" id="rect3146" style="fill:#128807;fill-opacity:1"/>
  <path inkscape:connector-curvature="0" style="fill:#000080;stroke:none" id="polygon2506" d="m 123.4 155.6 c -10 0 -18 8.1 -18 18 0 9.9 8.1 18 18 18 10 0 18 -8.1 18 -18 0 -9.9 -8.1 -18 -18 -18 z m -0 1.8 -0.5 9 0.5 5.2 0.5 -5.2 -0.5 -9 c 0.5 0 0.9 0 1.4 0.1 0 0 -0 0.1 -0 0.1 0 0.4 0.3 0.7 0.7 0.7 0.4 0 0.7 -0.3 0.7 -0.6 0.4 0.1 0.9 0.2 1.3 0.3 l -2.8 8.6 -0.9 5.1 1.8 -4.9 1.9 -8.9 c 0.4 0.1 0.9 0.3 1.3 0.4 -0 0.1 -0.1 0.2 -0.1 0.3 0 0.4 0.3 0.7 0.7 0.7 0.3 0 0.6 -0.2 0.7 -0.4 0.4 0.2 0.8 0.4 1.2 0.6 l -4.9 7.6 -2.2 4.7 3 -4.2 4.1 -8.1 c 0.4 0.2 0.8 0.5 1.1 0.7 -0.1 0.1 -0.2 0.3 -0.2 0.5 0 0.4 0.3 0.7 0.7 0.7 0.2 0 0.5 -0.1 0.6 -0.3 0.3 0.3 0.7 0.6 1 0.9 l -6.7 6.1 -3.3 4 4 -3.3 6.1 -6.7 c 0.3 0.3 0.6 0.7 0.9 1 -0.2 0.1 -0.3 0.3 -0.3 0.6 0 0.4 0.3 0.7 0.7 0.7 0.2 0 0.3 -0.1 0.4 -0.1 0.3 0.4 0.5 0.8 0.7 1.1 l -8.1 4.1 -4.2 3 4.7 -2.2 7.6 -4.9 c 0.2 0.4 0.5 0.8 0.7 1.3 -0.3 0.1 -0.5 0.4 -0.5 0.7 0 0.4 0.3 0.7 0.7 0.7 0.1 0 0.2 -0 0.3 -0.1 0.1 0.4 0.3 0.8 0.4 1.2 l -8.9 1.9 -4.9 1.8 5.1 -0.9 8.6 -2.8 c 0.1 0.4 0.2 0.9 0.3 1.3 -0.4 0.1 -0.6 0.4 -0.6 0.7 0 0.4 0.3 0.7 0.7 0.7 0 0 0.1 0 0.1 0 0 0.5 0.1 0.9 0.1 1.4 l -9.1 -0.5 -5.2 0.5 5.2 0.5 9.1 -0.5 c 0 0.5 -0 0.9 -0.1 1.4 -0 0 -0.1 0 -0.1 0 -0.4 0 -0.7 0.3 -0.7 0.7 0 0.4 0.3 0.7 0.6 0.7 -0.1 0.5 -0.2 0.9 -0.3 1.3 l -3.1 -1 -5.5 -1.8 -5.1 -0.9 0 0 -0 0 4.9 1.8 8.9 1.9 c -0.1 0.4 -0.3 0.9 -0.4 1.3 -0 -0 -0.1 -0 -0.1 -0 0 0 0 0 0 0 -0.1 -0 -0.1 -0 -0.1 -0 -0.4 0 -0.7 0.3 -0.7 0.7 0 0.1 0 0.2 0.1 0.3 0 0 0 0 0 0 0.1 0.1 0.1 0.2 0.2 0.3 0 0 0 0 0 0 0 0 0 0 0.1 0 0 0 0 0 0 0 0 0 0 0 0.1 0 0 0 0 0 0 0 0 0 0 0 0.1 0 -0.2 0.4 -0.4 0.8 -0.6 1.2 l -7.6 -4.9 0 0 -4.7 -2.2 0 0 2.5 1.7 1.8 1.2 0 0 8.1 4.1 c -0.2 0.4 -0.5 0.8 -0.7 1.2 -0.1 -0.1 -0.3 -0.1 -0.4 -0.1 -0.4 0 -0.7 0.3 -0.7 0.7 0 0.2 0.1 0.4 0.3 0.6 -0.3 0.3 -0.6 0.7 -0.9 1 l -6.1 -6.7 -4 -3.3 3.3 4 6.7 6.1 c -0.3 0.3 -0.6 0.6 -1 0.9 -0.1 -0.1 -0.3 -0.2 -0.5 -0.2 -0.4 0 -0.7 0.3 -0.7 0.7 0 0.1 0 0.2 0.1 0.3 -0.4 0.3 -0.8 0.5 -1.2 0.8 l -4.1 -8.1 -3 -4.2 0 0 2.2 4.7 4.9 7.6 c -0.4 0.2 -0.8 0.4 -1.2 0.6 -0.1 -0.3 -0.4 -0.4 -0.7 -0.4 -0.4 0 -0.7 0.3 -0.7 0.7 0 0.1 0 0.2 0.1 0.3 -0.4 0.2 -0.9 0.3 -1.3 0.4 l -1.9 -8.9 -1.8 -4.9 0 0 0.9 5.1 2.8 8.6 c -0.4 0.1 -0.9 0.2 -1.3 0.3 -0.1 -0.4 -0.4 -0.6 -0.7 -0.6 -0.4 0 -0.7 0.3 -0.7 0.7 0 0 0 0.1 0 0.1 -0.5 0 -0.9 0.1 -1.4 0.1 l 0.5 -9.1 -0.5 -5.2 -0.5 5.2 0.5 9 c -0.5 0 -0.9 -0 -1.4 -0.1 0 -0 0 -0.1 0 -0.1 0 -0.4 -0.3 -0.7 -0.7 -0.7 -0.4 0 -0.7 0.3 -0.7 0.6 -0.4 -0.1 -0.9 -0.2 -1.3 -0.3 l 2.8 -8.6 0.9 -5.1 -1.8 4.9 -1.9 8.9 c -0.4 -0.1 -0.9 -0.3 -1.3 -0.4 0 -0.1 0.1 -0.2 0.1 -0.3 0 -0.4 -0.3 -0.7 -0.7 -0.7 -0.3 0 -0.6 0.2 -0.7 0.4 -0.4 -0.2 -0.8 -0.4 -1.2 -0.6 l 4.9 -7.6 2.2 -4.7 -3 4.2 -4.1 8.1 c -0.4 -0.2 -0.8 -0.5 -1.2 -0.7 0.1 -0.1 0.1 -0.3 0.1 -0.4 0 -0.4 -0.3 -0.7 -0.7 -0.7 -0.2 0 -0.4 0.1 -0.6 0.3 -0.3 -0.3 -0.7 -0.6 -1 -0.9 l 6.7 -6.1 3.3 -4 0 0 -4 3.3 -6.1 6.7 c -0.3 -0.3 -0.6 -0.7 -0.9 -1 0.2 -0.1 0.3 -0.3 0.3 -0.6 0 -0.4 -0.3 -0.7 -0.7 -0.7 -0.2 0 -0.3 0.1 -0.4 0.1 -0.3 -0.4 -0.5 -0.8 -0.7 -1.1 l 8.1 -4.1 4.2 -3 -4.7 2.2 -7.6 4.9 c -0.2 -0.4 -0.4 -0.8 -0.6 -1.2 0.3 -0.1 0.5 -0.4 0.5 -0.7 0 -0.4 -0.3 -0.7 -0.7 -0.7 -0.1 0 -0.2 0 -0.3 0.1 -0.2 -0.4 -0.3 -0.9 -0.4 -1.3 l 8.9 -1.9 4.9 -1.8 -5.1 0.9 -8.6 2.8 c -0.1 -0.4 -0.2 -0.9 -0.3 -1.3 0.4 -0.1 0.6 -0.4 0.6 -0.7 0 -0.4 -0.3 -0.7 -0.7 -0.7 -0 0 -0.1 0 -0.1 0 -0 -0.5 -0.1 -0.9 -0.1 -1.4 l 9.1 0.5 5.2 -0.5 -5.2 -0.5 -9.1 0.5 c 0 -0.5 0 -0.9 0.1 -1.4 0 0 0.1 0 0.1 0 0.4 0 0.7 -0.3 0.7 -0.7 0 -0.4 -0.3 -0.7 -0.7 -0.7 0.1 -0.5 0.2 -0.9 0.3 -1.3 l 8.6 2.8 5.1 0.9 -4.9 -1.8 -8.9 -1.9 c 0.1 -0.4 0.3 -0.9 0.4 -1.3 0.1 0 0.2 0.1 0.3 0.1 0.4 0 0.7 -0.3 0.7 -0.7 0 -0.3 -0.2 -0.6 -0.4 -0.7 0.2 -0.4 0.4 -0.8 0.6 -1.2 l 7.6 4.9 4.7 2.2 -4.3 -3 -8.1 -4.1 c 0.2 -0.4 0.5 -0.8 0.7 -1.2 0.1 0.1 0.3 0.1 0.5 0.1 0.4 0 0.7 -0.3 0.7 -0.7 0 -0.2 -0.1 -0.5 -0.3 -0.6 0.3 -0.3 0.6 -0.7 0.9 -1 l 6.1 6.7 4 3.3 -3.3 -4 -6.7 -6.1 c 0.3 -0.3 0.7 -0.6 1 -0.9 0.1 0.2 0.3 0.3 0.6 0.3 0.4 0 0.7 -0.3 0.7 -0.7 0 -0.2 -0.1 -0.3 -0.1 -0.4 0.4 -0.3 0.7 -0.5 1.1 -0.7 l 4.1 8.1 3 4.2 -2.2 -4.7 -4.9 -7.6 c 0.4 -0.2 0.8 -0.4 1.2 -0.6 0.1 0.3 0.4 0.5 0.7 0.5 0.4 0 0.7 -0.3 0.7 -0.7 0 -0.1 -0 -0.2 -0.1 -0.3 0.4 -0.2 0.9 -0.3 1.3 -0.4 l 1.9 8.9 1.8 4.9 -0.9 -5.1 -2.8 -8.6 c 0.4 -0.1 0.9 -0.2 1.3 -0.3 0.1 0.4 0.4 0.6 0.7 0.6 0.4 0 0.7 -0.3 0.7 -0.7 0 -0 0 -0.1 0 -0.1 0.5 -0 0.9 -0.1 1.4 -0.1 z"/>
  <path transform="matrix(0.83624894,0,0,0.83430696,105.36892,155.57012)" style="fill:#ffffff;stroke:none" d="m 24.8 21.6 c 0 1.8 -1.4 3.2 -3.2 3.2 -1.8 0 -3.2 -1.4 -3.2 -3.2 0 -1.8 1.4 -3.2 3.2 -3.2 1.8 0 3.2 1.4 3.2 3.2 z" id="circle229"/>
  <path transform="matrix(0.83624894,0,0,0.83430696,105.36892,155.57012)" style="fill:#000080;stroke:none" d="m 24.1 21.6 c 0 1.4 -1.1 2.5 -2.5 2.5 -1.4 0 -2.5 -1.1 -2.5 -2.5 0 -1.4 1.1 -2.5 2.5 -2.5 1.4 0 2.5 1.1 2.5 2.5 z" id="circle227"/>
  <path inkscape:connector-curvature="0" style="fill:none;stroke:#000000;stroke-width:4.14770842;stroke-miterlimit:4;stroke-opacity:1;stroke-dasharray:none;display:inline" d="m 213.3 235.7 c 7.6 0 11.3 -3.5 11.3 -11.5 l 0 -112.7 -202.3 0 0 112.8 c 0 8 3.8 11.4 10.3 11.4 l 180.8 0 z" id="path41"/>
</svg>
