<svg xmlns="http://www.w3.org/2000/svg" version="1.0" width="100%" height="100%" 
xmlns:xlink="http://www.w3.org/1999/xlink" viewBox="-94.3397445678711 -66.14016723632812 554.196533203125 548.4949340820312"  preserveAspectRatio="xMidYMid meet">
<rect id="svgEditorBackground" x="7.87109" y="6.61328" width="341.211" height="351.465" style="stroke: none; fill: none;"/>

<circle id="e1_circle" cx="180.16" cy="205.917" style="stroke-width: 1px;" stroke="#000000" r="236.727" fill="#000000"/>
<path d="M89.8,363.146 C51.1405,349.331 23.0698,314.955 11.9556,267.815 C6.91155,246.419 5.48526,211.066 9.66671,211.066 C11.056,211.066 14.7663,220.767 17.9121,232.623 C24.796,258.568 36.5375,282.965 47.8791,294.89 C66.7178,314.699 113.379,322.457 140.264,310.25 C161.207,300.742 169.7,278.142 160.593,256.156 C153.556,239.166 137.59,233.485 107.851,237.388 C107.851,237.388 89.626,217.77 83.8195,182.932 L102.501,184.626 C125,186.666 141.988,181.692 150.805,170.484 C159.091,159.951 158.912,155.877 149.692,145.158 C136.387,129.691 112.498,133.609 64.1297,159.192 L39.7248,118.282 L49.9563,110.478 C75.5965,90.9207 120.117,81.1436 145.453,89.5055 C168.532,97.122 185.47,127.344 180.946,152.829 C177.886,170.059 164.071,194.192 153.397,200.95 L144.192,206.778 L156.907,212.512 C178.513,222.255 191.704,214.807 207.463,183.965 C229.273,141.283 243.418,130.234 276.31,130.187 C291.625,130.165 297.076,131.771 308.246,139.599 C336.125,159.137 351.305,199.593 347.971,245.469 C343.748,303.571 316.227,338.812 275.077,338.812 C252.494,338.812 237.938,330.892 226.35,312.298 C216.173,295.966 211.586,263.619 217.431,249.39 C220.235,242.564 220.742,242.332 220.925,247.793 C221.262,257.833 232.685,274.152 243.171,279.575 C268.901,292.88 305.838,276.163 320.451,244.6 C331.547,220.636 325.594,174.413 310.364,166.262 C307.178,164.557 299.304,163.161 292.868,163.161 C279.185,163.161 268.44,172.998 253.376,199.314 C248.168,208.412 239.403,220.168 233.898,225.438 C224.954,233.999 221.761,235.019 203.874,235.019 L183.857,235.019 L190.327,249.39 C199.588,269.961 199.15,303.383 189.353,323.73 C180.696,341.709 160.679,359.911 144.677,364.356 C129.099,368.684 103.731,368.124 89.8,363.146 z M165.177,85.1201 C156.322,70.0107 150.873,41.8025 156.809,41.8025 C163.781,56.9286 178.073,70.4234 193.377,79.8396 C220.864,93.1456 248.736,87.7748 279.186,63.3046 C285.889,57.9176 291.825,54.1094 292.378,54.842 C299.813,66.3805 312.674,75.8096 316.925,89.2178 C316.925,94.875 292.572,111.157 273.355,118.346 C225.726,132.067 193.309,126.639 165.177,85.1201 z M189.179,50.1935 L220.188,15.8101 L254.649,47.7107 C242.862,57.4189 234.353,72.4854 220.887,80.1263 C210.247,72.2826 194.366,63.0341 189.179,50.1935 z" 
style="fill:#c0c0c0"/>
</svg>