<?xml version="1.0" encoding="utf-8"?>
<!-- Generator: Adobe Illustrator 12.0.1, SVG Export Plug-In . SVG Version: 6.00 Build 51448)  -->
<!DOCTYPE svg PUBLIC "-//W3C//DTD SVG 1.1//EN" "http://www.w3.org/Graphics/SVG/1.1/DTD/svg11.dtd" [
	<!ENTITY ns_svg "http://www.w3.org/2000/svg">
	<!ENTITY ns_xlink "http://www.w3.org/1999/xlink">
]>
<svg  version="1.1" id="Layer_2" xmlns="&ns_svg;" xmlns:xlink="&ns_xlink;" width="256" height="256" viewBox="0 0 256 256"
	 style="overflow:visible;enable-background:new 0 0 256 256;" xml:space="preserve">
<style type="text/css">
<![CDATA[
	.st0{fill:#1E3852;}
	.st1{fill:url(#XMLID_56_);stroke:#EBA800;stroke-width:5.507;}
	.st2{fill:none;stroke:#EB8D00;stroke-width:5.507;}
	.st3{opacity:0.4;}
	.st4{fill:url(#XMLID_43_);}
	.st5{fill:url(#XMLID_44_);}
	.st6{fill:url(#XMLID_45_);}
	.st7{fill:url(#XMLID_46_);}
	.st8{fill:url(#XMLID_47_);}
	.st9{fill:url(#XMLID_48_);}
	.st10{fill:url(#XMLID_49_);}
	.st11{fill:url(#XMLID_50_);}
	.st12{fill:url(#XMLID_51_);}
	.st13{fill:url(#XMLID_52_);}
	.st14{fill:url(#XMLID_53_);}
	.st15{fill:url(#XMLID_54_);}
	.st16{fill:url(#XMLID_55_);}
	.st17{fill:url(#XMLID_57_);}
	.st18{fill:url(#XMLID_58_);}
	.st19{fill:none;}
	.st20{fill:none;stroke:#000000;stroke-width:4;}
	.st21{fill:url(#XMLID_42_);stroke:#000000;stroke-width:4;}
	.st22{fill:#047391;}
	.st23{filter:url(#AI_GaussianBlur_4);}
]]>
</style>
<filter  id="AI_GaussianBlur_4">
	<feGaussianBlur  stdDeviation="4"></feGaussianBlur>
</filter>
<rect class="st19" width="256" height="256"/>
<g class="st3">
	<path class="st0" d="M237.1,234.3c0,5.3-4.3,9.6-9.6,9.6H50.9c-5.3,0-9.6-4.3-9.6-9.6V115.2c0-5.3,4.3-9.6,9.6-9.6h176.6
		c5.3,0,9.6,4.3,9.6,9.6V234.3z"/>
	<path class="st0" d="M241.1,120.1c0,1.1-0.9,2-2,2H31c-1.1,0-2-0.9-2-2V98.9c0-1.1,0.9-2,2-2h208.1c1.1,0,2,0.9,2,2V120.1z"/>
	<path class="st0" d="M233,41.6c0.3,1.1-0.3,2.2-1.4,2.5L31,99.2c-1.1,0.3-2.2-0.3-2.5-1.4l-5.6-20.5c-0.3-1.1,0.3-2.2,1.4-2.5
		l200.6-55.1c1.1-0.3,2.2,0.3,2.5,1.4L233,41.6z"/>
</g>
<g>
	
		<linearGradient id="XMLID_59_" gradientUnits="userSpaceOnUse" x1="132.9141" y1="828.9922" x2="132.9141" y2="690.6924" gradientTransform="matrix(1 0 0 1 0.2852 -589.0918)">
		<stop  offset="0" style="stop-color:#F2DCE3"/>
		<stop  offset="0.3427" style="stop-color:#FFF0F7"/>
		<stop  offset="0.7753" style="stop-color:#FFFCFA"/>
		<stop  offset="1" style="stop-color:#A6A7A9"/>
	</linearGradient>
	<path style="fill:url(#XMLID_59_);stroke:#000000;stroke-width:4;" d="M231.1,230.3c0,5.3-4.3,9.6-9.6,9.6H44.9
		c-5.3,0-9.6-4.3-9.6-9.6V111.2c0-5.3,4.3-9.6,9.6-9.6h176.6c5.3,0,9.6,4.3,9.6,9.6V230.3z"/>
	
		<linearGradient id="XMLID_60_" gradientUnits="userSpaceOnUse" x1="132.915" y1="822.292" x2="132.915" y2="695.293" gradientTransform="matrix(1 0 0 1 0.2852 -589.0918)">
		<stop  offset="0" style="stop-color:#E0C3CC"/>
		<stop  offset="0.3427" style="stop-color:#F2DAE5"/>
		<stop  offset="0.8202" style="stop-color:#FFF2FA"/>
		<stop  offset="1" style="stop-color:#78797A"/>
	</linearGradient>
	<path style="fill:url(#XMLID_60_);" d="M223.1,224.4c0,4.9-4,8.8-8.9,8.8H52.1c-4.9,0-8.9-4-8.9-8.8V115.1c0-4.9,4-8.9,8.9-8.9
		h162.2c4.9,0,8.9,4,8.9,8.9v109.3H223.1z"/>
</g>
<g>
	
		<linearGradient id="XMLID_61_" gradientUnits="userSpaceOnUse" x1="128.7646" y1="705.1924" x2="128.7646" y2="679.9648" gradientTransform="matrix(1 0 0 1 0.2852 -589.0918)">
		<stop  offset="0" style="stop-color:#A8A8A8"/>
		<stop  offset="0.2303" style="stop-color:#F9F9F9"/>
		<stop  offset="0.4101" style="stop-color:#FFFFFF"/>
		<stop  offset="0.7753" style="stop-color:#FFFFFF"/>
		<stop  offset="1" style="stop-color:#575757"/>
	</linearGradient>
	<path style="fill:url(#XMLID_61_);" d="M235.1,114.1c0,1.1-0.9,2-2,2H25c-1.1,0-2-0.9-2-2V92.9c0-1.1,0.9-2,2-2h208.1
		c1.1,0,2,0.9,2,2V114.1z"/>
	<g>
		
			<linearGradient id="XMLID_62_" gradientUnits="userSpaceOnUse" x1="127.8149" y1="705.1924" x2="127.8149" y2="679.9648" gradientTransform="matrix(1 0 0 1 0.2852 -589.0918)">
			<stop  offset="0" style="stop-color:#000000"/>
			<stop  offset="0.3146" style="stop-color:#484848"/>
			<stop  offset="0.7753" style="stop-color:#A6A6A6"/>
			<stop  offset="1" style="stop-color:#000000"/>
		</linearGradient>
		<polygon style="fill:url(#XMLID_62_);" points="134.8,90.9 116.7,90.9 121.4,116.1 139.5,116.1 		"/>
		
			<linearGradient id="XMLID_63_" gradientUnits="userSpaceOnUse" x1="87.8647" y1="705.1924" x2="87.8647" y2="679.9648" gradientTransform="matrix(1 0 0 1 0.2852 -589.0918)">
			<stop  offset="0" style="stop-color:#000000"/>
			<stop  offset="0.3146" style="stop-color:#484848"/>
			<stop  offset="0.7753" style="stop-color:#A6A6A6"/>
			<stop  offset="1" style="stop-color:#000000"/>
		</linearGradient>
		<polygon style="fill:url(#XMLID_63_);" points="94.9,90.9 76.7,90.9 81.4,116.1 99.6,116.1 		"/>
		
			<linearGradient id="XMLID_64_" gradientUnits="userSpaceOnUse" x1="47.8647" y1="705.1924" x2="47.8647" y2="679.9648" gradientTransform="matrix(1 0 0 1 0.2852 -589.0918)">
			<stop  offset="0" style="stop-color:#000000"/>
			<stop  offset="0.3146" style="stop-color:#484848"/>
			<stop  offset="0.7753" style="stop-color:#A6A6A6"/>
			<stop  offset="1" style="stop-color:#000000"/>
		</linearGradient>
		<polygon style="fill:url(#XMLID_64_);" points="41.5,116.1 59.6,116.1 54.9,90.9 36.7,90.9 		"/>
		
			<linearGradient id="XMLID_65_" gradientUnits="userSpaceOnUse" x1="167.7646" y1="705.1924" x2="167.7646" y2="679.9648" gradientTransform="matrix(1 0 0 1 0.2852 -589.0918)">
			<stop  offset="0" style="stop-color:#000000"/>
			<stop  offset="0.3146" style="stop-color:#484848"/>
			<stop  offset="0.7753" style="stop-color:#A6A6A6"/>
			<stop  offset="1" style="stop-color:#000000"/>
		</linearGradient>
		<polygon style="fill:url(#XMLID_65_);" points="174.8,90.9 156.6,90.9 161.4,116.1 179.5,116.1 		"/>
		
			<linearGradient id="XMLID_66_" gradientUnits="userSpaceOnUse" x1="207.7646" y1="705.1924" x2="207.7646" y2="679.9648" gradientTransform="matrix(1 0 0 1 0.2852 -589.0918)">
			<stop  offset="0" style="stop-color:#000000"/>
			<stop  offset="0.3146" style="stop-color:#484848"/>
			<stop  offset="0.7753" style="stop-color:#A6A6A6"/>
			<stop  offset="1" style="stop-color:#000000"/>
		</linearGradient>
		<polygon style="fill:url(#XMLID_66_);" points="214.7,90.9 196.6,90.9 201.3,116.1 219.5,116.1 		"/>
	</g>
	<path class="st20" d="M235.1,114.1c0,1.1-0.9,2-2,2H25c-1.1,0-2-0.9-2-2V92.9c0-1.1,0.9-2,2-2h208.1c1.1,0,2,0.9,2,2V114.1z"/>
</g>
<g>
	
		<linearGradient id="XMLID_67_" gradientUnits="userSpaceOnUse" x1="-44.7739" y1="722.6611" x2="-44.7739" y2="697.4306" gradientTransform="matrix(0.9643 -0.2648 0.2648 0.9643 -22.8961 -643.1094)">
		<stop  offset="0" style="stop-color:#A8A8A8"/>
		<stop  offset="0.2303" style="stop-color:#F9F9F9"/>
		<stop  offset="0.4101" style="stop-color:#FFFFFF"/>
		<stop  offset="0.7753" style="stop-color:#FFFFFF"/>
		<stop  offset="1" style="stop-color:#575757"/>
	</linearGradient>
	<path style="fill:url(#XMLID_67_);" d="M227,35.6c0.3,1.1-0.3,2.2-1.4,2.5L25,93.2c-1.1,0.3-2.2-0.3-2.5-1.4l-5.6-20.5
		c-0.3-1.1,0.3-2.2,1.4-2.5l200.6-55.1c1.1-0.3,2.2,0.3,2.5,1.4L227,35.6z"/>
	<g>
		
			<linearGradient id="XMLID_68_" gradientUnits="userSpaceOnUse" x1="-45.708" y1="722.6602" x2="-45.708" y2="697.4316" gradientTransform="matrix(0.9643 -0.2648 0.2648 0.9643 -22.8961 -643.1094)">
			<stop  offset="0" style="stop-color:#000000"/>
			<stop  offset="0.3146" style="stop-color:#484848"/>
			<stop  offset="0.7753" style="stop-color:#A6A6A6"/>
			<stop  offset="1" style="stop-color:#000000"/>
		</linearGradient>
		<polygon style="fill:url(#XMLID_68_);" points="124.2,39.8 106.7,44.6 117.9,67.6 135.4,62.8 		"/>
		
			<linearGradient id="XMLID_69_" gradientUnits="userSpaceOnUse" x1="-85.6758" y1="722.6572" x2="-85.6759" y2="697.4316" gradientTransform="matrix(0.9643 -0.2648 0.2648 0.9643 -22.8961 -643.1094)">
			<stop  offset="0" style="stop-color:#000000"/>
			<stop  offset="0.3146" style="stop-color:#484848"/>
			<stop  offset="0.7753" style="stop-color:#A6A6A6"/>
			<stop  offset="1" style="stop-color:#000000"/>
		</linearGradient>
		<polygon style="fill:url(#XMLID_69_);" points="85.6,50.3 68.1,55.1 79.4,78.2 96.9,73.4 		"/>
		
			<linearGradient id="XMLID_70_" gradientUnits="userSpaceOnUse" x1="-125.6567" y1="722.6572" x2="-125.6567" y2="697.4111" gradientTransform="matrix(0.9643 -0.2648 0.2648 0.9643 -22.8961 -643.1094)">
			<stop  offset="0" style="stop-color:#000000"/>
			<stop  offset="0.3146" style="stop-color:#484848"/>
			<stop  offset="0.7753" style="stop-color:#A6A6A6"/>
			<stop  offset="1" style="stop-color:#000000"/>
		</linearGradient>
		<polygon style="fill:url(#XMLID_70_);" points="40.8,88.8 58.3,84 47.1,60.9 29.6,65.7 		"/>
		
			<linearGradient id="XMLID_71_" gradientUnits="userSpaceOnUse" x1="-5.7754" y1="722.6592" x2="-5.7754" y2="697.4306" gradientTransform="matrix(0.9643 -0.2648 0.2648 0.9643 -22.8961 -643.1094)">
			<stop  offset="0" style="stop-color:#000000"/>
			<stop  offset="0.3146" style="stop-color:#484848"/>
			<stop  offset="0.7753" style="stop-color:#A6A6A6"/>
			<stop  offset="1" style="stop-color:#000000"/>
		</linearGradient>
		<polygon style="fill:url(#XMLID_71_);" points="162.7,29.2 145.2,34 156.4,57 173.9,52.2 		"/>
		
			<linearGradient id="XMLID_72_" gradientUnits="userSpaceOnUse" x1="34.2407" y1="722.6592" x2="34.2407" y2="697.4121" gradientTransform="matrix(0.9643 -0.2648 0.2648 0.9643 -22.8961 -643.1094)">
			<stop  offset="0" style="stop-color:#000000"/>
			<stop  offset="0.3146" style="stop-color:#484848"/>
			<stop  offset="0.7753" style="stop-color:#A6A6A6"/>
			<stop  offset="1" style="stop-color:#000000"/>
		</linearGradient>
		<polygon style="fill:url(#XMLID_72_);" points="201.3,18.6 183.8,23.4 195,46.5 212.5,41.7 		"/>
	</g>
	<path class="st20" d="M227,35.6c0.3,1.1-0.3,2.2-1.4,2.5L25,93.2c-1.1,0.3-2.2-0.3-2.5-1.4l-5.6-20.5c-0.3-1.1,0.3-2.2,1.4-2.5
		l200.6-55.1c1.1-0.3,2.2,0.3,2.5,1.4L227,35.6z"/>
</g>
<g class="st23">
	<circle cx="138.7" cy="180.2" r="54.8"/>
</g>
<g>
	
		<radialGradient id="XMLID_73_" cx="118.7837" cy="734.5039" r="100.5735" gradientTransform="matrix(1 0 0 1 0.2852 -589.0918)" gradientUnits="userSpaceOnUse">
		<stop  offset="5.600000e-03" style="stop-color:#FFFFFC"/>
		<stop  offset="0.3708" style="stop-color:#FFFF00"/>
		<stop  offset="0.8202" style="stop-color:#FFBC7D"/>
	</radialGradient>
	<circle style="fill:url(#XMLID_73_);stroke:#EBA800;stroke-width:5.507;" cx="133.2" cy="174.7" r="54.8"/>
	
		<linearGradient id="XMLID_74_" gradientUnits="userSpaceOnUse" x1="99.7646" y1="783.6523" x2="163.6645" y2="783.6523" gradientTransform="matrix(1 0 0 1 0.2852 -589.0918)">
		<stop  offset="0" style="stop-color:#474747"/>
		<stop  offset="0.5" style="stop-color:#FFFFFF"/>
		<stop  offset="0.7921" style="stop-color:#F3F3F3"/>
		<stop  offset="1" style="stop-color:#898989"/>
	</linearGradient>
	<path style="fill:url(#XMLID_74_);" d="M128.6,190.2c-6.2-0.8-34-25.7-27.6-0.7c4.5,17.8,21.6,21.6,38,21.2
		c8.9-0.2,25.7-3.9,25-15.1C162.3,172.7,147.5,192.6,128.6,190.2z"/>
	
		<linearGradient id="XMLID_75_" gradientUnits="userSpaceOnUse" x1="99.7646" y1="777.3887" x2="163.5146" y2="777.3887" gradientTransform="matrix(1 0 0 1 0.2852 -589.0918)">
		<stop  offset="0" style="stop-color:#666666"/>
		<stop  offset="0.4101" style="stop-color:#FFFFFF"/>
		<stop  offset="0.8146" style="stop-color:#FAFAFA"/>
		<stop  offset="1" style="stop-color:#B3B3B3"/>
	</linearGradient>
	<path style="fill:url(#XMLID_75_);" d="M163.8,194.3c-2.1-20.8-16.7-1.8-35.2-4.1c-6.2-0.8-34-25.7-27.6-0.7c0.1,0.5,0.3,1,0.4,1.5
		c10.3,4.6,22.6,7.2,35.7,7.2C146.6,198.2,155.6,196.8,163.8,194.3z"/>
	<path class="st2" d="M128.6,190.2c-6.2-0.8-34-25.7-27.6-0.7c4.5,17.8,21.6,21.6,38,21.2c8.9-0.2,25.7-3.9,25-15.1
		C162.3,172.7,147.5,192.6,128.6,190.2z"/>
	<ellipse class="st22" cx="149.5" cy="161" rx="5.5" ry="11"/>
	<path class="st22" d="M127.2,162.4c0,1.9-4.8,6.1-10.8,6.1s-10.8-4.3-10.8-6.1c0-1.9,4.8,0.7,10.8,0.7S127.2,160.5,127.2,162.4z"/>
</g>
</svg>
